<?xml version="1.0" encoding="utf-8"?>
<!-- Generator: Adobe Illustrator 27.5.0, SVG Export Plug-In . SVG Version: 6.00 Build 0)  -->
<svg version="1.1" xmlns="http://www.w3.org/2000/svg" xmlns:xlink="http://www.w3.org/1999/xlink" x="0px" y="0px"
	 viewBox="0 0 500 500" style="enable-background:new 0 0 500 500;" xml:space="preserve">
<g id="Background_Simple">
	<g>
		<path style="fill:#92E3A9;" d="M437.65,206.431c-18.192-20.118-48.67-22.37-72.371-35.558
			c-40.79-22.696-56.604-74.39-93.712-102.709c-23.432-17.883-55.092-24.814-83.405-20.894c-40.189,5.564-78.005,32.5-89.357,71.962
			c-3.15,10.951-4.411,22.826-3.44,35.411c1.817,23.55,6.882,47.403,2.104,70.533c-5.267,25.493-21.854,47.017-31.764,71.088
			c-12.338,29.968-14.037,63.605-8.761,95.581c3.6,21.819,10.776,43.845,25.759,60.109c1.132,1.228,2.311,2.401,3.513,3.548h163.609
			c10.264-13.089,18.045-28.58,27.073-42.324c22.721-34.585,59.096-59.243,98.829-70.809c17.799-5.181,37.082-8.265,51.384-20.059
			c14.716-12.135,21.476-31.496,24.402-50.344C455.057,249.143,453.141,223.561,437.65,206.431z"/>
		<path style="opacity:0.7;fill:#FFFFFF;" d="M437.65,206.431c-18.192-20.118-48.67-22.37-72.371-35.558
			c-40.79-22.696-56.604-74.39-93.712-102.709c-23.432-17.883-55.092-24.814-83.405-20.894c-40.189,5.564-78.005,32.5-89.357,71.962
			c-3.15,10.951-4.411,22.826-3.44,35.411c1.817,23.55,6.882,47.403,2.104,70.533c-5.267,25.493-21.854,47.017-31.764,71.088
			c-12.338,29.968-14.037,63.605-8.761,95.581c3.6,21.819,10.776,43.845,25.759,60.109c1.132,1.228,2.311,2.401,3.513,3.548h163.609
			c10.264-13.089,18.045-28.58,27.073-42.324c22.721-34.585,59.096-59.243,98.829-70.809c17.799-5.181,37.082-8.265,51.384-20.059
			c14.716-12.135,21.476-31.496,24.402-50.344C455.057,249.143,453.141,223.561,437.65,206.431z"/>
	</g>
</g>
<g id="Floor">
	
		<line style="fill:none;stroke:#263238;stroke-linecap:round;stroke-linejoin:round;stroke-miterlimit:10;" x1="26.559" y1="455.502" x2="457.099" y2="455.502"/>
</g>
<g id="Graphics">
	<g>
		<g>
			
				<ellipse transform="matrix(0.7071 -0.7071 0.7071 0.7071 7.3414 193.9072)" style="fill:none;stroke:#263238;stroke-linecap:round;stroke-linejoin:round;stroke-miterlimit:10;" cx="237.737" cy="88.092" rx="18.834" ry="18.834"/>
			<g>
				
					<line style="fill:none;stroke:#263238;stroke-linecap:round;stroke-linejoin:round;stroke-miterlimit:10;" x1="237.737" y1="135.827" x2="237.737" y2="137.926"/>
				
					<line style="fill:none;stroke:#263238;stroke-linecap:round;stroke-linejoin:round;stroke-miterlimit:10;" x1="237.737" y1="121.973" x2="237.737" y2="132.979"/>
				
					<line style="fill:none;stroke:#263238;stroke-linecap:round;stroke-linejoin:round;stroke-miterlimit:10;" x1="237.737" y1="112.431" x2="237.737" y2="119.216"/>
				
					<line style="fill:none;stroke:#263238;stroke-linecap:round;stroke-linejoin:round;stroke-miterlimit:10;" x1="237.737" y1="49.378" x2="237.737" y2="65.301"/>
				
					<line style="fill:none;stroke:#263238;stroke-linecap:round;stroke-linejoin:round;stroke-miterlimit:10;" x1="237.737" y1="44.59" x2="237.737" y2="46.914"/>
				
					<line style="fill:none;stroke:#263238;stroke-linecap:round;stroke-linejoin:round;stroke-miterlimit:10;" x1="237.737" y1="38.257" x2="237.737" y2="41.711"/>
			</g>
			<g>
				
					<line style="fill:none;stroke:#263238;stroke-linecap:round;stroke-linejoin:round;stroke-miterlimit:10;" x1="203.489" y1="88.092" x2="187.903" y2="88.092"/>
				
					<line style="fill:none;stroke:#263238;stroke-linecap:round;stroke-linejoin:round;stroke-miterlimit:10;" x1="209.756" y1="88.092" x2="206.338" y2="88.092"/>
				
					<line style="fill:none;stroke:#263238;stroke-linecap:round;stroke-linejoin:round;stroke-miterlimit:10;" x1="213.398" y1="88.092" x2="212.514" y2="88.092"/>
				<path style="fill:none;stroke:#263238;stroke-linecap:round;stroke-linejoin:round;stroke-miterlimit:10;" d="M273.079,88.092
					c0,0-11.458,0-12.551,0"/>
				
					<line style="fill:none;stroke:#263238;stroke-linecap:round;stroke-linejoin:round;stroke-miterlimit:10;" x1="281.239" y1="88.092" x2="275.544" y2="88.092"/>
				
					<line style="fill:none;stroke:#263238;stroke-linecap:round;stroke-linejoin:round;stroke-miterlimit:10;" x1="287.572" y1="88.092" x2="284.118" y2="88.092"/>
			</g>
			<g>
				
					<line style="fill:none;stroke:#263238;stroke-linecap:round;stroke-linejoin:round;stroke-miterlimit:10;" x1="213.52" y1="63.875" x2="202.499" y2="52.853"/>
				
					<line style="fill:none;stroke:#263238;stroke-linecap:round;stroke-linejoin:round;stroke-miterlimit:10;" x1="217.952" y1="68.306" x2="215.535" y2="65.889"/>
				
					<line style="fill:none;stroke:#263238;stroke-linecap:round;stroke-linejoin:round;stroke-miterlimit:10;" x1="220.527" y1="70.882" x2="219.902" y2="70.256"/>
				<path style="fill:none;stroke:#263238;stroke-linecap:round;stroke-linejoin:round;stroke-miterlimit:10;" d="M262.728,113.082
					c0,0-8.102-8.102-8.875-8.875"/>
				
					<line style="fill:none;stroke:#263238;stroke-linecap:round;stroke-linejoin:round;stroke-miterlimit:10;" x1="268.498" y1="118.852" x2="264.47" y2="114.825"/>
				
					<line style="fill:none;stroke:#263238;stroke-linecap:round;stroke-linejoin:round;stroke-miterlimit:10;" x1="272.976" y1="123.33" x2="270.533" y2="120.888"/>
			</g>
			<g>
				
					<line style="fill:none;stroke:#263238;stroke-linecap:round;stroke-linejoin:round;stroke-miterlimit:10;" x1="209.348" y1="116.481" x2="202.499" y2="123.33"/>
				
					<line style="fill:none;stroke:#263238;stroke-linecap:round;stroke-linejoin:round;stroke-miterlimit:10;" x1="213.779" y1="112.05" x2="211.362" y2="114.467"/>
				
					<line style="fill:none;stroke:#263238;stroke-linecap:round;stroke-linejoin:round;stroke-miterlimit:10;" x1="220.527" y1="105.302" x2="215.729" y2="110.1"/>
				
					<line style="fill:none;stroke:#263238;stroke-linecap:round;stroke-linejoin:round;stroke-miterlimit:10;" x1="256.171" y1="69.658" x2="253.853" y2="71.976"/>
				
					<line style="fill:none;stroke:#263238;stroke-linecap:round;stroke-linejoin:round;stroke-miterlimit:10;" x1="268.498" y1="57.331" x2="257.914" y2="67.915"/>
				
					<line style="fill:none;stroke:#263238;stroke-linecap:round;stroke-linejoin:round;stroke-miterlimit:10;" x1="272.976" y1="52.853" x2="270.533" y2="55.296"/>
			</g>
			<g>
				<g>
					
						<line style="fill:none;stroke:#263238;stroke-linecap:round;stroke-linejoin:round;stroke-miterlimit:10;" x1="223.004" y1="122.01" x2="222.356" y2="123.501"/>
					
						<line style="fill:none;stroke:#263238;stroke-linecap:round;stroke-linejoin:round;stroke-miterlimit:10;" x1="227.28" y1="112.166" x2="223.883" y2="119.986"/>
					<path style="fill:none;stroke:#263238;stroke-linecap:round;stroke-linejoin:round;stroke-miterlimit:10;" d="M229.466,107.134
						c-0.445,1.024-0.89,2.048-1.335,3.072"/>
					<path style="fill:none;stroke:#263238;stroke-linecap:round;stroke-linejoin:round;stroke-miterlimit:10;" d="M249.686,60.584
						c-0.993,2.287-1.987,4.574-2.98,6.861"/>
					
						<line style="fill:none;stroke:#263238;stroke-linecap:round;stroke-linejoin:round;stroke-miterlimit:10;" x1="251.164" y1="57.182" x2="250.447" y2="58.833"/>
					
						<line style="fill:none;stroke:#263238;stroke-linecap:round;stroke-linejoin:round;stroke-miterlimit:10;" x1="253.118" y1="52.682" x2="252.052" y2="55.137"/>
				</g>
				<g>
					
						<line style="fill:none;stroke:#263238;stroke-linecap:round;stroke-linejoin:round;stroke-miterlimit:10;" x1="213.403" y1="77.521" x2="202.328" y2="72.711"/>
					<path style="fill:none;stroke:#263238;stroke-linecap:round;stroke-linejoin:round;stroke-miterlimit:10;" d="M217.82,79.44
						c-0.798-0.347-1.596-0.693-2.394-1.04"/>
					<path style="fill:none;stroke:#263238;stroke-linecap:round;stroke-linejoin:round;stroke-miterlimit:10;" d="M262.849,99
						c-2.029-0.881-4.058-1.763-6.087-2.644"/>
					
						<line style="fill:none;stroke:#263238;stroke-linecap:round;stroke-linejoin:round;stroke-miterlimit:10;" x1="268.647" y1="101.518" x2="264.6" y2="99.76"/>
					
						<line style="fill:none;stroke:#263238;stroke-linecap:round;stroke-linejoin:round;stroke-miterlimit:10;" x1="273.147" y1="103.473" x2="270.693" y2="102.407"/>
				</g>
				<g>
					
						<line style="fill:none;stroke:#263238;stroke-linecap:round;stroke-linejoin:round;stroke-miterlimit:10;" x1="228.005" y1="63.41" x2="223.575" y2="52.177"/>
					
						<line style="fill:none;stroke:#263238;stroke-linecap:round;stroke-linejoin:round;stroke-miterlimit:10;" x1="229.786" y1="67.927" x2="228.814" y2="65.463"/>
					<path style="fill:none;stroke:#263238;stroke-linecap:round;stroke-linejoin:round;stroke-miterlimit:10;" d="M247.781,113.561
						c-0.812-2.058-1.623-4.116-2.435-6.174"/>
					
						<line style="fill:none;stroke:#263238;stroke-linecap:round;stroke-linejoin:round;stroke-miterlimit:10;" x1="250.1" y1="119.442" x2="248.481" y2="115.338"/>
					
						<line style="fill:none;stroke:#263238;stroke-linecap:round;stroke-linejoin:round;stroke-miterlimit:10;" x1="251.9" y1="124.006" x2="250.918" y2="121.517"/>
				</g>
				<g>
					
						<line style="fill:none;stroke:#263238;stroke-linecap:round;stroke-linejoin:round;stroke-miterlimit:10;" x1="208.803" y1="99.502" x2="201.823" y2="102.254"/>
					
						<line style="fill:none;stroke:#263238;stroke-linecap:round;stroke-linejoin:round;stroke-miterlimit:10;" x1="213.32" y1="97.72" x2="210.856" y2="98.692"/>
					
						<line style="fill:none;stroke:#263238;stroke-linecap:round;stroke-linejoin:round;stroke-miterlimit:10;" x1="269.088" y1="75.729" x2="258.301" y2="79.983"/>
					
						<line style="fill:none;stroke:#263238;stroke-linecap:round;stroke-linejoin:round;stroke-miterlimit:10;" x1="273.652" y1="73.929" x2="271.162" y2="74.911"/>
				</g>
			</g>
		</g>
		<g>
			<path style="fill:none;stroke:#263238;stroke-linecap:round;stroke-linejoin:round;stroke-miterlimit:10;" d="M120.756,123.308
				l-5.639,0.117c0,0-6.53-14.264-18.963-8.375c-7.967,3.773-9.768,11.452-9.768,11.452s-10.331-0.84-14.023,6.714l-18.239,3.186"/>
			
				<line style="fill:none;stroke:#263238;stroke-linecap:round;stroke-linejoin:round;stroke-miterlimit:10;" x1="148.519" y1="122.731" x2="125.668" y2="123.206"/>
			<path style="fill:none;stroke:#263238;stroke-linecap:round;stroke-linejoin:round;stroke-miterlimit:10;" d="M95.811,90.285
				c2.403-2.751,6.498-5.153,13.44-4.745c15.331,0.9,16.382,15.138,16.382,15.138s14.883-4.392,16.674,10.993
				c0,0,9.881-1.383,12.166,4.891l36.31,5.291l-35.34,0.734"/>
			<path style="fill:none;stroke:#263238;stroke-linecap:round;stroke-linejoin:round;stroke-miterlimit:10;" d="M92.473,97.444
				c0,0,0.134-1.19,0.755-2.818"/>
			
				<line style="fill:none;stroke:#263238;stroke-linecap:round;stroke-linejoin:round;stroke-miterlimit:10;" x1="146.323" y1="160.263" x2="143.443" y2="160.402"/>
			<path style="fill:none;stroke:#263238;stroke-linecap:round;stroke-linejoin:round;stroke-miterlimit:10;" d="M79.272,139.455
				l34.815,1.989c0,0,5.248-6.308,14.243-6.308c9.169,0,12.948,9.112,12.948,9.112s7.85-2.434,12.821,1.887
				c4.971,4.32,5.378,8.667,5.378,8.667l59.395,1.956l-66.194,3.199"/>
			
				<line style="fill:none;stroke:#263238;stroke-linecap:round;stroke-linejoin:round;stroke-miterlimit:10;" x1="64.531" y1="138.613" x2="72.558" y2="139.072"/>
			<path style="fill:none;stroke:#263238;stroke-linecap:round;stroke-linejoin:round;stroke-miterlimit:10;" d="M352.26,146.809
				c2.028-0.207,3.119-0.324,2.848-0.312"/>
			<path style="fill:none;stroke:#263238;stroke-linecap:round;stroke-linejoin:round;stroke-miterlimit:10;" d="M226.026,173.921
				c3.493-5.667,10.128-13.049,21.14-13.519c18.013-0.768,20.892,10.863,20.892,10.863s3.688-17.045,17.415-21.459
				c13.728-4.414,18.889,1.717,18.889,1.717s25.711-2.503,40.546-3.977"/>
			<path style="fill:none;stroke:#263238;stroke-linecap:round;stroke-linejoin:round;stroke-miterlimit:10;" d="M222.854,180.433
				c0,0,0.392-1.2,1.261-3.012"/>
			<polyline style="fill:none;stroke:#263238;stroke-linecap:round;stroke-linejoin:round;stroke-miterlimit:10;" points="
				413.757,130.441 433.852,132.402 397.549,134.398 			"/>
			<path style="fill:none;stroke:#263238;stroke-linecap:round;stroke-linejoin:round;stroke-miterlimit:10;" d="M342.648,110.097
				c2.217-2.698,5.232-5.022,9.283-5.89c11.992-2.57,18.549,6.356,19.424,12.97c0,0,10.759-11.584,20.313-4.747
				c9.554,6.837,7.859,16.622,7.859,16.622l10.168,0.992"/>
			<path style="fill:none;stroke:#263238;stroke-linecap:round;stroke-linejoin:round;stroke-miterlimit:10;" d="M292.493,137.748
				l18.452-2.451c0,0-0.44-7.389,8.467-12.414c8.907-5.025,17.61-0.773,17.61-0.773s0.796-4.185,3.267-8.549"/>
			<polyline style="fill:none;stroke:#263238;stroke-linecap:round;stroke-linejoin:round;stroke-miterlimit:10;" points="
				305.392,142.778 254.631,142.778 288.786,138.24 			"/>
			
				<line style="fill:none;stroke:#263238;stroke-linecap:round;stroke-linejoin:round;stroke-miterlimit:10;" x1="318.479" y1="142.778" x2="314.411" y2="142.778"/>
			
				<line style="fill:none;stroke:#263238;stroke-linecap:round;stroke-linejoin:round;stroke-miterlimit:10;" x1="69.6" y1="189.309" x2="66.19" y2="189.777"/>
			
				<line style="fill:none;stroke:#263238;stroke-linecap:round;stroke-linejoin:round;stroke-miterlimit:10;" x1="82.6" y1="187.525" x2="76.376" y2="188.379"/>
			<path style="fill:none;stroke:#263238;stroke-linecap:round;stroke-linejoin:round;stroke-miterlimit:10;" d="M207.262,203.245
				l-7.942,0.22c0,0-0.957-8.427-9.566-11.975c-8.123-3.348-17.919,1.148-17.919,1.148s0.326-20.145-21.604-22.421
				c-21.93-2.276-25.592,11.538-25.592,11.538l-39.24,5.385"/>
			
				<line style="fill:none;stroke:#263238;stroke-linecap:round;stroke-linejoin:round;stroke-miterlimit:10;" x1="258.277" y1="201.831" x2="212.571" y2="203.098"/>
			<path style="fill:none;stroke:#263238;stroke-linecap:round;stroke-linejoin:round;stroke-miterlimit:10;" d="M402.022,200.185
				c0,0-15.161-29.5-46.913-26.784c-31.753,2.716-37.659,29.267-37.659,29.267s-13.918-10.38-21.03-1.894l-34.953,0.968"/>
		</g>
		<polyline style="fill:none;stroke:#263238;stroke-linecap:round;stroke-linejoin:round;stroke-miterlimit:10;" points="
			443.176,441.608 443.176,411.237 433.852,411.237 433.852,421.592 428.719,421.592 428.719,376.61 417.919,376.61 
			417.919,388.051 413.745,388.051 402.564,399.232 397.813,399.232 397.813,343.215 395.176,343.215 395.176,370.596 
			385.902,370.596 385.902,416.283 371.355,416.283 371.355,427.343 362.194,427.343 362.194,387.992 353.761,379.559 
			353.761,364.717 350.099,364.717 350.099,396.074 337.591,396.074 337.591,422.098 331.059,415.566 331.059,376.61 
			322.201,376.61 322.201,366.287 314.207,358.293 314.207,323.779 311.622,326.363 311.622,398.05 291.61,398.05 291.61,410.842 
			275.567,410.842 275.567,368.068 262.983,368.068 262.983,384.904 259.284,384.904 259.284,403.999 244.394,403.999 
			244.394,342.63 224.199,342.63 224.199,318.052 220.247,318.052 220.247,340.415 210.223,340.415 210.223,358.41 215.55,363.738 
			215.55,385.894 205.551,385.894 205.551,402.351 186.129,402.351 186.129,354.989 182.682,351.543 182.682,362.568 
			168.507,376.743 168.507,388.051 146.184,388.051 146.184,396.596 134.655,396.596 134.655,355.713 129.038,355.713 
			129.038,370.596 120.755,370.596 120.755,383.654 109.097,383.654 109.097,355.713 103.385,355.713 103.385,399.297 
			93.231,409.451 93.231,424.681 82.6,424.681 82.6,390.194 79.488,390.194 79.488,406.606 69.6,406.606 69.6,428.316 
			58.315,428.316 58.315,447.466 		"/>
	</g>
</g>
<g id="Character_3">
	<g>
		<g>
			<path style="fill:#92E3A9;stroke:#263238;stroke-linecap:round;stroke-linejoin:round;stroke-miterlimit:10;" d="
				M356.296,344.249c0,0,3.286,14.144,3.033,17.213c-0.253,3.068,2.022,8.123,5.055,8.882c3.033,0.758,12.041-0.164,13.996-3.118
				c3.791-5.728,0.505-20.826,0-26.167C377.874,335.717,356.296,344.249,356.296,344.249z"/>
			<path style="fill:none;stroke:#263238;stroke-linecap:round;stroke-linejoin:round;stroke-miterlimit:10;" d="M376.231,350.503
				c0,0,1.115,13.283-0.758,16.428"/>
			<path style="fill:#92E3A9;stroke:#263238;stroke-linecap:round;stroke-linejoin:round;stroke-miterlimit:10;" d="
				M362.194,352.687c0,0,0.8,13.612,2.948,15.381"/>
			<path style="fill:#92E3A9;stroke:#263238;stroke-linecap:round;stroke-linejoin:round;stroke-miterlimit:10;" d="M360.34,354.948
				c0,0,13.49-2.55,15.386-2.55s2.148,0.676,2.275,2.55c0.126,1.873-13.49,2.253-15.259,3.264c-1.769,1.011-0.126,3.286-0.126,3.918
				c0,0.632,12.858,0.253,14.122-0.758c1.264-1.011,0.885,2.275,0.379,3.159c-0.505,0.885-12.521,2.147-14.922,1.641"/>
		</g>
		<path style="fill:#92E3A9;stroke:#263238;stroke-linecap:round;stroke-linejoin:round;stroke-miterlimit:10;" d="M320.659,436.905
			c0,0,0.505,3.55-1.517,5.9c-2.022,2.35-11.868,4.613-12.374,6.515s0,5.44,0,5.44h29.708c0,0,1.517-3.058,1.011-11.007
			C336.982,435.804,320.659,436.905,320.659,436.905z"/>
		<path style="fill:#263238;" d="M322.201,267.186l-2.5,9.801c0,0-0.143,56.796-0.667,63.134c-0.523,6.338-0.388,11.922,1.25,18.229
			c1.638,6.307-1.639,19.842,0,22.931c1.638,3.09,0.884,40.234-1.014,44.978c-1.897,4.743,0.213,12.321,0.213,12.321l18.004,5.174
			c0,0,3.033-11.384,1.896-14.153c-1.137-2.769,1.269-2.526,0.255-12.504c-1.013-9.979,8.085-96.48,8.844-95.122
			c0.758,1.358,5.992,18.434,5.992,19.219c0,0.785-2.075,2.779-1.316,3.665c0.758,0.886-0.126,4.685,3.665,6.571
			c4.939,2.457,13.469,0.861,16.502-0.918s8.466-3.874,8.393-6.538c-0.073-2.665,0.018-5.272-1.878-5.558
			c0,0,0.487-11.354-1.029-16.441c-1.516-5.087-4.549-20.415-4.549-25.641c0-5.226-4.865-32.486-4.865-32.486L322.201,267.186z"/>
		<g>
			<path style="fill:none;stroke:#FFFFFF;stroke-linecap:round;stroke-linejoin:round;stroke-miterlimit:10;" d="M358.339,307.044
				c-2.275,1.882-14.786,11.295-17.818,18.531"/>
			<path style="fill:none;stroke:#FFFFFF;stroke-linecap:round;stroke-linejoin:round;stroke-miterlimit:10;" d="M345.083,294.724
				c0.517,3.66,0.838,7.343,1.216,11.018"/>
			<path style="fill:none;stroke:#FFFFFF;stroke-linecap:round;stroke-linejoin:round;stroke-miterlimit:10;" d="M343.806,285.421
				c0.156,1.532,0.383,3.057,0.601,4.581"/>
			<path style="fill:none;stroke:#FFFFFF;stroke-linecap:round;stroke-linejoin:round;stroke-miterlimit:10;" d="M365.142,280.113
				c0,0,2.422,7.709,6.213,10.363"/>
			<path style="fill:none;stroke:#FFFFFF;stroke-linecap:round;stroke-linejoin:round;stroke-miterlimit:10;" d="M324.471,280.745
				c0,0,0.506,9.099-2.907,13.522"/>
			<path style="fill:none;stroke:#FFFFFF;stroke-linecap:round;stroke-linejoin:round;stroke-miterlimit:10;" d="M360.34,316.309
				c-2.38,0.326-8.699,0.452-11.732,3.485"/>
			<path style="fill:none;stroke:#FFFFFF;stroke-linecap:round;stroke-linejoin:round;stroke-miterlimit:10;" d="M330.543,353.1
				c-1.084,1.196-3.417,4.344-5.313,3.847"/>
			<path style="fill:none;stroke:#FFFFFF;stroke-linecap:round;stroke-linejoin:round;stroke-miterlimit:10;" d="M343.806,335.717
				c-3.039,4.824-6.625,9.412-10.221,13.826"/>
			<path style="fill:none;stroke:#FFFFFF;stroke-linecap:round;stroke-linejoin:round;stroke-miterlimit:10;" d="M324.471,387.024
				c0.506,1.643,6.951,19.494,9.099,20.488"/>
			<path style="fill:none;stroke:#FFFFFF;stroke-linecap:round;stroke-linejoin:round;stroke-miterlimit:10;" d="M331.064,431.616
				c1.395,0.772,2.798,1.561,4.275,2.166"/>
			<path style="fill:none;stroke:#FFFFFF;stroke-linecap:round;stroke-linejoin:round;stroke-miterlimit:10;" d="M322.576,426.705
				c1.318,0.789,2.642,1.568,3.97,2.34"/>
			<path style="fill:none;stroke:#FFFFFF;stroke-linecap:round;stroke-linejoin:round;stroke-miterlimit:10;" d="M356.296,341.572
				c0,0,12.706,2.148,20.264-2.78"/>
			<path style="fill:none;stroke:#FFFFFF;stroke-linecap:round;stroke-linejoin:round;stroke-miterlimit:10;" d="M369.171,343.215
				c0,0-2.996,7.498-7.925,7.288"/>
			<path style="fill:none;stroke:#FFFFFF;stroke-linecap:round;stroke-linejoin:round;stroke-miterlimit:10;" d="M378.001,340.415
				c0,0,2.045,4.158-1.985,6.828"/>
		</g>
		<g>
			<defs>
				<path id="XMLID_804_" d="M380.959,187.608c-0.498,0.91-3.354,3.737-6.967,7.111c0,0,0,0,0,0.01
					c-7.37,6.871-17.854,16.042-17.854,16.042s1.62,5.836,3.565,12.822c2.846,10.244,6.402,22.981,6.545,23.431
					c0.249,0.757,4.897,20.508,4.897,20.508v4.543c-24.849,20.403-52.669,12.257-52.669,12.257s0.47-11.04-0.278-11.299
					c-0.738-0.249-0.009-5.05-2.616-10.11c-1.572-3.047-5.827-12.152-8.951-18.879l-0.565-1.208l-0.661-1.438l-0.978-2.099
					l-0.316-0.69l-0.144-0.316c0,0-0.01-0.01-0.019-0.038c-0.585-1.275-0.939-2.032-0.939-2.032s-0.077,0.086-0.22,0.259
					c-1.591,1.878-11.433,13.484-16.895,19.789c-1.946,2.242-3.326,3.805-3.603,4.034c-1.121,0.93-28.213,16.685-28.213,16.685
					s-4.801-8.5-4.121-9.804c0.671-1.303,21.313-17.154,23.757-19.559c2.444-2.405,9.44-14.605,9.44-14.605
					s11.366-19.636,12.382-20.393c1.006-0.757,17.441-10.36,19.147-10.36c0,0,19.77-7.58,22.549-8.347
					c2.789-0.757,29.325-16.464,29.325-16.464s3.028-18.917,3.287-20.939c0.249-2.022,0.604-9.669,3.019-12.286
					c0.652-0.709,0.757-1.457,0.757-1.457l0.268-3.124c7.475-3.23,11.519,0.086,11.519,0.086v3.393c0,0,0.105,0.968,0.345,1.332
					C386.757,145.978,382.473,184.829,380.959,187.608z"/>
			</defs>
			<use xlink:href="#XMLID_804_"  style="overflow:visible;fill:#BFBFBF;"/>
			<clipPath id="XMLID_00000113351687900464003670000012851008801318939276_">
				<use xlink:href="#XMLID_804_"  style="overflow:visible;"/>
			</clipPath>
			<path style="opacity:0.2;clip-path:url(#XMLID_00000113351687900464003670000012851008801318939276_);fill-opacity:0.7;" d="
				M298.025,227.561c1.485,3.479,3.508,6.91,4.763,8.922c-1.591,1.878-11.433,13.484-16.895,19.789
				c2.108-6.9,6.948-12.42,8.376-14.087c1.773-2.08-0.249-2.473-1.763-5.961c-1.505-3.498,5.299,0.46,4.792-2.329
				C296.799,231.106,297.096,225.376,298.025,227.561z"/>
			<path style="opacity:0.2;clip-path:url(#XMLID_00000113351687900464003670000012851008801318939276_);fill-opacity:0.7;" d="
				M373.992,194.728c-7.37,6.871-17.854,16.042-17.854,16.042s1.62,5.836,3.565,12.822c-5.357-3.689-8.845-16.014-7.772-16.387
				c7.715-2.75,21.907-12.343,22.061-12.487C373.992,194.719,373.992,194.719,373.992,194.728z"/>
			
				<use xlink:href="#XMLID_804_"  style="overflow:visible;fill:none;stroke:#263238;stroke-linecap:round;stroke-linejoin:round;stroke-miterlimit:10;"/>
		</g>
		<g>
			<path style="fill:#FFFFFF;stroke:#263238;stroke-linecap:round;stroke-linejoin:round;stroke-miterlimit:10;" d="
				M388.279,116.593c-0.447-0.408-1.043-0.851-1.591-0.849c-0.377-0.004-1.689,0.816-3.154,1.822c-2.333,1.606-5.068,3.7-5.068,3.7
				l5.313,11.008c1.825,0.22,3.425-0.601,4.673-1.753l0.011-0.002c0.859-0.792,1.54-1.733,2.027-2.594L388.279,116.593z"/>
			<g>
				<g>
					<path style="fill:#92E3A9;stroke:#263238;stroke-linecap:round;stroke-linejoin:round;stroke-miterlimit:10;" d="
						M385.637,69.046c-1.225,0.469-1.876,1.835-1.42,3.077c3.63,9.85,6.796,18.46,9.541,26.028l-16.155,6.771
						c-3.472-7.264-7.39-15.558-11.868-25.053c-0.565-1.196-1.992-1.689-3.189-1.145c-1.197,0.565-1.709,1.992-1.146,3.189
						c19.83,42.047,28.905,61.006,36.231,69.773c5.625,6.731,43.377,92.831,56.306,122.714c0.522,1.206,1.916,1.765,3.124,1.259
						c0.009-0.004,0.017-0.007,0.026-0.011c0.502-0.217,0.884-0.59,1.132-1.034c0.49,0.135,1.024,0.124,1.531-0.082
						c0.009-0.004,0.017-0.007,0.026-0.011c1.208-0.507,1.787-1.893,1.293-3.11c-12.241-30.172-47.159-117.46-48.013-126.19
						c-1.113-11.37-8.268-31.135-24.343-74.756C388.255,69.224,386.879,68.588,385.637,69.046z M395.389,102.662
						c7.608,21.135,11.549,33.38,12.684,41.283l-7.855,3.292c-4.839-6.351-10.806-17.747-20.54-37.991L395.389,102.662z
						 M433.852,216.473c-11.822-26.5-25.182-55.693-30.801-65.227l5.891-2.469C411.801,159.468,423.247,189.462,433.852,216.473z"/>
				</g>
				<path style="fill:none;stroke:#263238;stroke-width:7;stroke-linecap:round;stroke-linejoin:round;stroke-miterlimit:10;" d="
					M359.632,82.54c0,0,3.008-6.748,13.284-11.054c10.276-4.307,17.485-1.841,17.485-1.841"/>
				<path style="fill:#263238;" d="M473.754,305.932l-4.094,1.716c-0.753,0.315-1.619-0.039-1.934-0.792l-13.453-32.098l6.82-2.858
					l13.453,32.098C474.861,304.75,474.506,305.616,473.754,305.932z"/>
			</g>
			<path style="fill:#FFFFFF;stroke:#263238;stroke-linecap:round;stroke-linejoin:round;stroke-miterlimit:10;" d="
				M390.431,121.174c0,0,1.312,0.113,0.931,3.335c-0.034,0.29,0.637,1.286,0.094,2.76c-0.197,0.535-1.517,1.766-3.813,1.784
				c-0.533,0.004-0.505-1.37-0.275-1.411c-0.226,0.029-1.103,0.091-1.414-0.618c-0.339-0.775,0.637-2.98,0.721-3.174
				c-0.109,0.065-1.034,0.656-1.611-0.372c-0.611-1.088,0.339-2.579,0.339-2.579s-1.689,0.363-1.92-1.275
				c-0.097-0.723-0.087-1.411,0.053-2.058c1.464-1.005,2.777-1.826,3.154-1.822c0.984-0.004,1.777,0.404,1.902,0.479
				c0.128,0.086,0.527,2.142,0.527,2.142C390.608,118.292,391.046,119.847,390.431,121.174z"/>
			<path style="fill:#FFFFFF;stroke:#263238;stroke-linecap:round;stroke-linejoin:round;stroke-miterlimit:10;" d="
				M383.761,125.991c0.782-2.165-1.085-5.002-1.252-5.298c-0.167-0.296,1.567-1.51,1.567-1.51c2.042,0.368,3.061-1.144,3.061-1.144
				s-2.86-1.194-3.491-1.618c-0.63-0.425-4.922,2.148-5.783,3.629c-0.861,1.482-0.269,10.251-0.269,10.251l-1.801,9.321
				c0,0,3.936,2.227,8.683,0.644l0.788-7.585"/>
			<path style="fill:none;stroke:#263238;stroke-linecap:round;stroke-linejoin:round;stroke-miterlimit:10;" d="M385.401,120.899
				c0.207-0.317,2.237-1.699,2.237-1.699"/>
			
				<line style="fill:none;stroke:#263238;stroke-linecap:round;stroke-linejoin:round;stroke-miterlimit:10;" x1="386.674" y1="123.85" x2="388.878" y2="121.914"/>
			
				<line style="fill:none;stroke:#263238;stroke-linecap:round;stroke-linejoin:round;stroke-miterlimit:10;" x1="387.367" y1="127.641" x2="389.354" y2="126.037"/>
		</g>
		<path style="fill:#BFBFBF;stroke:#263238;stroke-linecap:round;stroke-linejoin:round;stroke-miterlimit:10;" d="M251.049,267.186
			l-3.228,1.485c0,0-0.69,6.303,3.228,8.325l3.582-1.15c0,0-0.827-4.963-2.205-6.811"/>
		<path style="fill:#FFFFFF;stroke:#263238;stroke-linecap:round;stroke-linejoin:round;stroke-miterlimit:10;" d="M248.419,269.982
			l-6.754,1.39c0,0-6.628,1.883-8.018,1.986c-1.39,0.103-3.374,6.433-3.26,7.444c0.114,1.011,1.263,3.983,2.424,3.207
			c0.799-0.534-0.523-3.633-0.523-3.633s1.057-1.163,1.818-2.494c0,0,4.4-0.976,5.032-1.216c0.632-0.24,0.506,1.575,0.193,2.188
			c-0.313,0.613-3.203,2.623-3.447,3.844c-0.316,1.58,0.9,1.848,0.9,1.848s2.595-2.858,4.755-2.98
			c2.16-0.122,4.934-2.971,6.026-3.749c1.092-0.778,3.565-1.896,3.565-1.896S250.357,271.955,248.419,269.982z"/>
		<path style="fill:none;stroke:#263238;stroke-linecap:round;stroke-linejoin:round;stroke-miterlimit:10;" d="M297.301,225.14
			c0,0,1.752,7.393,5.71,11.079"/>
		<path style="fill:none;stroke:#263238;stroke-linecap:round;stroke-linejoin:round;stroke-miterlimit:10;" d="M292.373,231.565
			c0,0,4.928,3.817,7.783,4.236"/>
		<path style="fill:none;stroke:#263238;stroke-linecap:round;stroke-linejoin:round;stroke-miterlimit:10;" d="M273.714,247.63
			c0,0,4.573,3.108,3.56,7.739"/>
		<path style="fill:none;stroke:#263238;stroke-linecap:round;stroke-linejoin:round;stroke-miterlimit:10;" d="M314.411,211.072
			c0,0,11.065,6.276,17.544-4.34"/>
		<path style="fill:none;stroke:#263238;stroke-linecap:round;stroke-linejoin:round;stroke-miterlimit:10;" d="M347.724,196.117
			c0,0,2.233,11.1,8.414,14.649"/>
		<path style="fill:none;stroke:#263238;stroke-linecap:round;stroke-linejoin:round;stroke-miterlimit:10;" d="M366.553,177.461
			c0,0,4.297,4.741,6.382,0.799"/>
		<path style="fill:none;stroke:#263238;stroke-linecap:round;stroke-linejoin:round;stroke-miterlimit:10;" d="M373.62,142.778
			c0,0,3.787,3.031,9.797,1.363"/>
		<g>
			<path style="fill:#FFFFFF;stroke:#263238;stroke-linecap:round;stroke-linejoin:round;stroke-miterlimit:10;" d="M331.96,200.555
				c0,0-3.987,7.235-8.414,8.682c-5.587,1.83-9.133-3.23-9.133-3.23l-0.661-3.431l-1.639-8.558l14.452-3.536
				c0,1.342,0.144,2.511,0.374,3.527C328.155,199.328,331.96,200.555,331.96,200.555z"/>
			<path style="fill:#263238;" d="M326.938,194.01c-1.754,3.22-5.683,8.222-13.186,8.567l-1.639-8.558l14.452-3.536
				C326.564,191.825,326.708,192.994,326.938,194.01z"/>
		</g>
		<g>
			<path style="fill:#FFFFFF;stroke:#263238;stroke-linecap:round;stroke-linejoin:round;stroke-miterlimit:10;" d="
				M329.743,179.802c0,0,3.033-2.153,3.648-0.683c0.615,1.47-0.333,0.76-0.533,3.562c-0.2,2.801-0.767,5.712-3.208,5.729
				C327.21,188.426,328.083,180.823,329.743,179.802z"/>
			<path style="fill:#FFFFFF;stroke:#263238;stroke-linecap:round;stroke-linejoin:round;stroke-miterlimit:10;" d="M306.75,179.766
				c0,0-2.777-2.474-3.55-1.081c-0.773,1.393,0.247,0.792,0.137,3.599c-0.11,2.806,0.133,5.762,2.557,6.047
				C308.317,188.618,308.287,180.965,306.75,179.766z"/>
			<path style="fill:#FFFFFF;stroke:#263238;stroke-linecap:round;stroke-linejoin:round;stroke-miterlimit:10;" d="M317.67,163.797
				c-6.554,0.057-9.853,1.269-11.369,6.236c-2.313,7.577,0.429,20.28,1.18,22.575c0.67,2.047,6.238,5.421,9.636,5.595
				c2.27,0.116,8.93-2.717,10.308-4.986c0.738-1.214,4.61-14.074,2.156-22.276C328.072,165.896,323.949,163.742,317.67,163.797z"/>
			<path style="fill:none;stroke:#263238;stroke-linecap:round;stroke-linejoin:round;stroke-miterlimit:10;" d="M312.113,172.916
				c0,0-3.06,0.122-4.29,2.818"/>
			<path style="fill:none;stroke:#263238;stroke-linecap:round;stroke-linejoin:round;stroke-miterlimit:10;" d="M319.412,172.801
				c0,0,3.066-0.569,4.974,2.286"/>
			<path style="fill:#263238;" d="M310.305,178.08c0.007,0.492,0.299,0.886,0.653,0.881c0.353-0.005,0.634-0.408,0.627-0.899
				c-0.007-0.492-0.299-0.886-0.653-0.881C310.578,177.186,310.297,177.588,310.305,178.08z"/>
			<path style="fill:#263238;" d="M320.992,177.937c0.007,0.492,0.299,0.886,0.653,0.881c0.353-0.005,0.634-0.408,0.627-0.899
				c-0.007-0.492-0.299-0.886-0.653-0.881C321.266,177.043,320.985,177.446,320.992,177.937z"/>
			<path style="fill:none;stroke:#263238;stroke-linecap:round;stroke-linejoin:round;stroke-miterlimit:10;" d="M314.477,175.849
				c0.628,0.693-0.192,6.82-1.038,7.659c-0.846,0.839,0.5,2.005,2.204,2.095"/>
			<path style="fill:none;stroke:#263238;stroke-linecap:round;stroke-linejoin:round;stroke-miterlimit:10;" d="M312.324,188.971
				c0,0,7.755-0.587,9.574-2.561c0,0,1.461,3.499-2.038,4.934C316.361,192.78,312.862,193.058,312.324,188.971z"/>
			<path style="fill:#263238;" d="M315.016,167.893c0,0,6.924-1.131,7.185-1.131s3.67,0.987,4.209,1.974
				c0.538,0.987,0.628,5.185,0.628,5.185s1.166,2.206,1.884,3.803c0.718,1.598,0.987,4.923,0.987,4.923l1.974-5.299
				c0,0,0.481-10.407-1.016-12.381c-1.496-1.974-15.851-8.254-15.851-8.254s-0.311,2.602-0.604,2.422
				c-0.293-0.179-7.022-3.409-7.022-3.409l0.433,4.396l-3.753,0.179v5.861c0,0-0.639,9.81,1.295,15.252c0,0,0.499-4.456,1.755-7.447
				c0,0-0.09-4.964,0.269-5.592C307.749,167.749,308.915,166.421,315.016,167.893z"/>
		</g>
		<path style="fill:none;stroke:#263238;stroke-linecap:round;stroke-linejoin:round;stroke-miterlimit:10;" d="M307.917,452.401
			c0.379,0,12.253-0.379,14.151,0c1.898,0.379,4.299,1.264,5.816,0.632c1.516-0.632,7.456-0.8,7.456-0.8"/>
		<path style="fill:none;stroke:#263238;stroke-linecap:round;stroke-linejoin:round;stroke-miterlimit:10;" d="M313.459,445.807
			c0,0,5.199-0.491,7.221,0.84l2.654-1.066c0,0-2.716-2.261-5.402-1.828"/>
		<path style="fill:none;stroke:#263238;stroke-linecap:round;stroke-linejoin:round;stroke-miterlimit:10;" d="M319.953,441.548
			c0,0,3.254,0.271,4.518,2.15l2.654-2.15c0,0-4.064-2.39-6.645-1.519"/>
		<path style="fill:none;stroke:#263238;stroke-linecap:round;stroke-linejoin:round;stroke-miterlimit:10;" d="M354.474,252.447
			c0,0-9.453,19.846-24.088,23.398"/>
		<path style="fill:none;stroke:#263238;stroke-linecap:round;stroke-linejoin:round;stroke-miterlimit:10;" d="M315.644,234.62
			c0,0,11.229,12.456,32.08,8.65"/>
	</g>
</g>
<g id="Character_2">
	<g>
		<g>
			<g>
				<g>
					
						<rect x="288.325" y="399.006" transform="matrix(0.9901 -0.1403 0.1403 0.9901 -53.2945 44.7603)" style="fill:#92E3A9;stroke:#263238;stroke-linecap:round;stroke-linejoin:round;stroke-miterlimit:10;" width="4.76" height="2.468"/>
					<path style="fill:#92E3A9;stroke:#263238;stroke-linecap:round;stroke-linejoin:round;stroke-miterlimit:10;" d="
						M309.953,425.102l5.547-0.786l-0.386-2.724l-4.892,0.693C309.033,422.454,308.416,424.095,309.953,425.102z"/>
					<path style="fill:#92E3A9;stroke:#263238;stroke-linecap:round;stroke-linejoin:round;stroke-miterlimit:10;" d="
						M303.073,376.562l5.547-0.786l-0.386-2.724l-4.892,0.693C302.153,373.914,301.536,375.554,303.073,376.562z"/>
					<path style="fill:#92E3A9;stroke:#263238;stroke-linecap:round;stroke-linejoin:round;stroke-miterlimit:10;" d="
						M310.739,449.802c6.299-0.893,8.168-24.456,4.175-52.629c-3.993-28.173-12.337-50.289-18.636-49.396
						c-6.299,0.893-8.168,24.455-4.175,52.629S304.44,450.695,310.739,449.802z M296.654,350.425
						c0.602-0.001,3.603,2.112,7.473,12.544c3.379,9.108,6.27,21.389,8.14,34.58c1.87,13.191,2.506,25.792,1.79,35.479
						c-0.82,11.12-3.125,13.972-3.697,14.127c-0.585,0.009-3.591-2.09-7.469-12.544c-3.379-9.108-6.27-21.389-8.139-34.58
						c-1.87-13.191-2.506-25.791-1.791-35.479C293.779,353.455,296.076,350.591,296.654,350.425z"/>
				</g>
				<g>
					<defs>
						<path id="XMLID_787_" d="M290.099,348.655c-6.301,0.893-8.165,24.457-4.172,52.627c3.993,28.171,12.331,50.288,18.633,49.395
							c6.301-0.893,8.165-24.456,4.172-52.627C304.739,369.879,296.401,347.762,290.099,348.655z M293.507,363.509
							c2.941,5.085,5.945,14.601,8.166,26.203c-0.252-0.406-0.508-0.733-0.764-0.98L293.507,363.509z M290.71,361.97
							c0.948,3.188,5.868,21.947,7.566,28.433c-0.145,0.574-0.254,1.244-0.326,1.991l-8.516-2.078
							C288.327,377.505,288.826,366.955,290.71,361.97z M303.807,409.175c0.177-0.309,0.332-0.694,0.461-1.154
							c1.09,11.762,0.849,21.738-0.563,27.44L303.807,409.175z M289.857,394.603l8.119,2.856c0.059,0.677,0.136,1.372,0.236,2.082
							c0.101,0.71,0.219,1.399,0.351,2.066l-7.005,5c-0.339-1.951-0.656-3.948-0.945-5.988
							C290.324,398.578,290.074,396.571,289.857,394.603z M292.343,410.842l7.603-4.363c0.277,0.698,0.568,1.312,0.867,1.822
							c0.171,6.702,0.657,26.09,0.633,29.416C298.251,433.451,294.84,423.455,292.343,410.842z"/>
					</defs>
					<use xlink:href="#XMLID_787_"  style="overflow:visible;fill:#FFFFFF;"/>
					<clipPath id="XMLID_00000121277231399515509950000012906767469875957683_">
						<use xlink:href="#XMLID_787_"  style="overflow:visible;"/>
					</clipPath>
					<g style="opacity:0.7;clip-path:url(#XMLID_00000121277231399515509950000012906767469875957683_);">
						<path style="fill:#92E3A9;" d="M290.099,348.655c-6.301,0.893-8.165,24.457-4.172,52.627
							c3.993,28.171,12.331,50.288,18.633,49.395c6.301-0.893,8.165-24.456,4.172-52.627
							C304.739,369.879,296.401,347.762,290.099,348.655z M293.507,363.509c2.941,5.085,5.945,14.601,8.166,26.203
							c-0.252-0.406-0.508-0.733-0.764-0.98L293.507,363.509z M290.71,361.97c0.948,3.188,5.868,21.947,7.566,28.433
							c-0.145,0.574-0.254,1.244-0.326,1.991l-8.516-2.078C288.327,377.505,288.826,366.955,290.71,361.97z M303.807,409.175
							c0.177-0.309,0.332-0.694,0.461-1.154c1.09,11.762,0.849,21.738-0.563,27.44L303.807,409.175z M289.857,394.603l8.119,2.856
							c0.059,0.677,0.136,1.372,0.236,2.082c0.101,0.71,0.219,1.399,0.351,2.066l-7.005,5c-0.339-1.951-0.656-3.948-0.945-5.988
							C290.324,398.578,290.074,396.571,289.857,394.603z M292.343,410.842l7.603-4.363c0.277,0.698,0.568,1.312,0.867,1.822
							c0.171,6.702,0.657,26.09,0.633,29.416C298.251,433.451,294.84,423.455,292.343,410.842z"/>
					</g>
					
						<use xlink:href="#XMLID_787_"  style="overflow:visible;fill:none;stroke:#263238;stroke-linecap:round;stroke-linejoin:round;stroke-miterlimit:10;"/>
				</g>
				<g>
					<path style="fill:#263238;" d="M301.503,454.583c-4.691,0.001-8.967-5.28-13.046-16.092c-3.608-9.564-6.678-22.47-8.645-36.343
						l0,0c-1.966-13.872-2.603-27.124-1.795-37.313c0.972-12.254,3.897-18.558,8.944-19.273c5.058-0.705,9.609,4.528,13.948,16.028
						c3.608,9.564,6.678,22.47,8.645,36.343c1.966,13.872,2.604,27.123,1.795,37.313c-0.972,12.253-3.897,18.557-8.944,19.272
						C302.103,454.561,301.802,454.583,301.503,454.583z M287.962,352.616c-2.66,2.724-5.209,20.396-1.218,48.55
						c3.99,28.154,11.35,44.422,14.661,46.3c2.66-2.724,5.209-20.395,1.218-48.55C298.633,370.762,291.273,354.493,287.962,352.616z
						"/>
				</g>
				<g>
					<defs>
						<path id="XMLID_788_" d="M285.688,349.279c-6.299,0.893-8.168,24.456-4.175,52.629c3.993,28.173,12.337,50.289,18.636,49.396
							c6.299-0.893,8.168-24.456,4.175-52.629C300.33,370.501,291.987,348.386,285.688,349.279z M298.072,446.072
							c-4.87,0.69-11.711-19.164-15.28-44.346c-3.569-25.182-2.515-46.155,2.355-46.845c4.87-0.69,11.711,19.164,15.28,44.345
							C303.996,424.409,302.942,445.382,298.072,446.072z"/>
					</defs>
					<use xlink:href="#XMLID_788_"  style="overflow:visible;fill:#FFFFFF;"/>
					<clipPath id="XMLID_00000106140587703574910180000011375382003930396591_">
						<use xlink:href="#XMLID_788_"  style="overflow:visible;"/>
					</clipPath>
					<path style="opacity:0.4;clip-path:url(#XMLID_00000106140587703574910180000011375382003930396591_);fill:#92E3A9;" d="
						M285.688,349.279c-6.299,0.893-8.168,24.456-4.175,52.629c3.993,28.173,12.337,50.289,18.636,49.396
						c6.299-0.893,8.168-24.456,4.175-52.629C300.33,370.501,291.987,348.386,285.688,349.279z M298.072,446.072
						c-4.87,0.69-11.711-19.164-15.28-44.346c-3.569-25.182-2.515-46.155,2.355-46.845c4.87-0.69,11.711,19.164,15.28,44.345
						C303.996,424.409,302.942,445.382,298.072,446.072z"/>
					
						<use xlink:href="#XMLID_788_"  style="overflow:visible;fill:none;stroke:#263238;stroke-linecap:round;stroke-linejoin:round;stroke-miterlimit:10;"/>
				</g>
			</g>
			<polygon style="fill:#1A2E35;" points="263.264,403.999 301.216,403.999 300.008,396.395 263.264,396.395 			"/>
			<g>
				<defs>
					<path id="XMLID_798_" d="M277.891,435.79h-18.472c-1.231,0-2.229-0.997-2.229-2.228c0-1.231,0.998-2.228,2.229-2.228h18.472
						c4.527,0,8.211-3.684,8.211-8.211v-85.674c0-3.564-2.899-6.462-6.462-6.462h-14.715c-1.231,0-2.228-0.998-2.228-2.228
						c0-1.231,0.998-2.228,2.228-2.228h14.715c6.021,0,10.919,4.898,10.919,10.919v85.674
						C290.559,430.108,284.876,435.79,277.891,435.79z"/>
				</defs>
				<use xlink:href="#XMLID_798_"  style="overflow:visible;fill:#FFFFFF;"/>
				<clipPath id="XMLID_00000161592507141516490020000007977180167296412815_">
					<use xlink:href="#XMLID_798_"  style="overflow:visible;"/>
				</clipPath>
				<path style="opacity:0.4;clip-path:url(#XMLID_00000161592507141516490020000007977180167296412815_);fill:#92E3A9;" d="
					M277.891,435.79h-18.472c-1.231,0-2.229-0.997-2.229-2.228c0-1.231,0.998-2.228,2.229-2.228h18.472
					c4.527,0,8.211-3.684,8.211-8.211v-85.674c0-3.564-2.899-6.462-6.462-6.462h-14.715c-1.231,0-2.228-0.998-2.228-2.228
					c0-1.231,0.998-2.228,2.228-2.228h14.715c6.021,0,10.919,4.898,10.919,10.919v85.674
					C290.559,430.108,284.876,435.79,277.891,435.79z"/>
				
					<use xlink:href="#XMLID_798_"  style="overflow:visible;fill:none;stroke:#263238;stroke-linecap:round;stroke-linejoin:round;stroke-miterlimit:10;"/>
			</g>
			<g>
				<path style="fill:#263238;" d="M288.622,323.422h-15.791c-1.008,0-1.825,1.192-1.825,2.661c0,1.47,0.817,2.661,1.825,2.661
					h15.791c1.008,0,1.825-1.191,1.825-2.661C290.446,324.613,289.629,323.422,288.622,323.422z"/>
				<path style="fill:#263238;" d="M272.278,328.619l16.775-5.121l-5.687-1.429l-0.016,0.006c-0.168-0.075-0.343-0.127-0.528-0.127
					h-15.791c-1.008,0-1.824,1.191-1.824,2.661c0,1.11,0.466,2.059,1.128,2.458l-0.002,0.001l0.178,0.079
					c0.052,0.023,0.103,0.054,0.157,0.07L272.278,328.619z"/>
			</g>
		</g>
		<g>
			<defs>
				<path id="XMLID_800_" d="M260.953,344.757v-72.776h-79.643v74.965h2.785v10.981c0,0,70.668,36.78,104.18-1.091l-2.172-12.078
					H260.953z"/>
			</defs>
			<use xlink:href="#XMLID_800_"  style="overflow:visible;fill:#757575;"/>
			<clipPath id="XMLID_00000129164317957831861960000004977889174903057573_">
				<use xlink:href="#XMLID_800_"  style="overflow:visible;"/>
			</clipPath>
			<path style="opacity:0.2;clip-path:url(#XMLID_00000129164317957831861960000004977889174903057573_);fill-opacity:0.7;" d="
				M260.953,282.821c0,0-16.652-6.65-36.144-6.415c-19.493,0.235-35.192,23.395-35.923,34.266
				c-0.731,10.871,5.616,18.006,15.842,13.616c10.226-4.391,22.732-3.773,24.355,1.795c1.622,5.568-24.203,13.209-19.754,18.674
				c4.45,5.466,51.624,0,51.624,0V282.821z"/>
			<path style="opacity:0.2;clip-path:url(#XMLID_00000129164317957831861960000004977889174903057573_);fill-opacity:0.7;" d="
				M188.885,347.752c0,0,20.915,16.178,49.352,16.965c28.436,0.787,52.468-19.959,52.468-19.959l-29.752,0L188.885,347.752z"/>
			
				<use xlink:href="#XMLID_800_"  style="overflow:visible;fill:none;stroke:#263238;stroke-linecap:round;stroke-linejoin:round;stroke-miterlimit:10;"/>
		</g>
		<g>
			<defs>
				<path id="XMLID_796_" d="M252.089,260.82h-0.803c-1.231,0-2.229,0.998-2.229,2.228c0,1.231,0.998,2.228,2.229,2.228h0.803
					c4.285,0,7.772,3.486,7.772,7.771v87.189c-0.195-0.052-0.398-0.082-0.606-0.075l-7.039,4.548l-31.042,22.23l-28.078-21.466
					l-6.504-4.373c-0.95,0.012-1.788,0.626-2.087,1.528c-0.299,0.902,0.007,1.894,0.762,2.471l32.102,24.542l-33.275,25.887v-142.48
					c0-6.743-5.486-12.228-12.229-12.228h-0.803c-1.231,0-2.228,0.998-2.228,2.228c0,1.231,0.998,2.228,2.228,2.228h0.803
					c4.285,0,7.772,3.486,7.772,7.771v147.038c0,0.851,0.485,1.628,1.25,2.002c0.311,0.151,0.645,0.226,0.978,0.226
					c0.487,0,0.97-0.159,1.369-0.469l37.711-29.338l39.821,29.372c0.678,0.5,1.577,0.574,2.328,0.196
					c0.75-0.379,1.224-1.148,1.224-1.989V273.047C264.317,266.305,258.832,260.82,252.089,260.82z M259.861,415.672l-35.052-25.854
					l35.052-25.102V415.672z"/>
			</defs>
			<use xlink:href="#XMLID_796_"  style="overflow:visible;fill:#FFFFFF;"/>
			<clipPath id="XMLID_00000067215489230849718660000003545286710365067173_">
				<use xlink:href="#XMLID_796_"  style="overflow:visible;"/>
			</clipPath>
			<g style="opacity:0.4;clip-path:url(#XMLID_00000067215489230849718660000003545286710365067173_);">
				<path style="fill:#92E3A9;" d="M252.089,260.82h-0.803c-1.231,0-2.229,0.998-2.229,2.228c0,1.231,0.998,2.228,2.229,2.228h0.803
					c4.285,0,7.772,3.486,7.772,7.771v87.189c-0.195-0.052-0.398-0.082-0.606-0.075l-7.039,4.548l-31.042,22.23l-28.078-21.466
					l-6.504-4.373c-0.95,0.012-1.788,0.626-2.087,1.528c-0.299,0.902,0.007,1.894,0.762,2.471l32.102,24.542l-33.275,25.887v-142.48
					c0-6.743-5.486-12.228-12.229-12.228h-0.803c-1.231,0-2.228,0.998-2.228,2.228c0,1.231,0.998,2.228,2.228,2.228h0.803
					c4.285,0,7.772,3.486,7.772,7.771v147.038c0,0.851,0.485,1.628,1.25,2.002c0.311,0.151,0.645,0.226,0.978,0.226
					c0.487,0,0.97-0.159,1.369-0.469l37.711-29.338l39.821,29.372c0.678,0.5,1.577,0.574,2.328,0.196
					c0.75-0.379,1.224-1.148,1.224-1.989V273.047C264.317,266.305,258.832,260.82,252.089,260.82z M259.861,415.672l-35.052-25.854
					l35.052-25.102V415.672z"/>
			</g>
			
				<use xlink:href="#XMLID_796_"  style="overflow:visible;fill:none;stroke:#263238;stroke-linecap:round;stroke-linejoin:round;stroke-miterlimit:10;"/>
		</g>
		<g>
			<g>
				<path style="fill:#FFFFFF;stroke:#263238;stroke-linecap:round;stroke-linejoin:round;stroke-miterlimit:10;" d="
					M263.426,229.309l5.328-6.034c0,0,0.668-8.052,4.039-14.419c3.371-6.367,7.116-24.906,7.116-24.906s-4.404-3.558-4.779-5.618
					c-0.375-2.06,0-3.745,0-5.243c0-1.498,2.996-1.685,2.996-1.685v-1.873l3.371-2.622c0,0,2.809,0.562,3.745,1.124
					c0.936,0.562,4.307,2.06,4.307,2.06s1.311,0.374,1.685,1.873c0.374,1.498-0.652,11.236-1.963,13.296
					c-1.311,2.06-2.712,24.157-3.461,28.839c-0.749,4.682-2.434,12.727-2.622,13.105c-0.731,1.475-0.884,5.006-8.553,14.792"/>
				<path style="fill:none;stroke:#263238;stroke-linecap:round;stroke-linejoin:round;stroke-miterlimit:10;" d="M278.126,171.403
					c0,0,3.563,1.83,4.092,1.83c0.529,0,0.264,1.763-0.529,1.939s-2.997,0.882-2.997,0.882s2.469,0.176,2.733,3.35"/>
				<path style="fill:none;stroke:#263238;stroke-linecap:round;stroke-linejoin:round;stroke-miterlimit:10;" d="M279.773,172.221
					c0,0,1.211-1.456,1.74-1.897c0.529-0.441,2.204-1.322,2.204-1.322"/>
				<path style="fill:none;stroke:#263238;stroke-linecap:round;stroke-linejoin:round;stroke-miterlimit:10;" d="M280.31,175.553
					c0.012,1.276,2.085,2.264,2.702,1.47c0,0,1.146,1.058,1.939,1.058s1.234-0.264,2.38,0c1.146,0.264,1.939-2.059,1.763-2.528
					c-0.176-0.469-1.146,0-1.146,0"/>
				<path style="fill:none;stroke:#263238;stroke-linecap:round;stroke-linejoin:round;stroke-miterlimit:10;" d="M286.206,177.97
					c-0.726-1.211-1.255-2.886-0.99-3.679s2.645-2.888,2.645-2.888"/>
				<path style="fill:none;stroke:#263238;stroke-linecap:round;stroke-linejoin:round;stroke-miterlimit:10;" d="M283.012,177.023
					c0,0-0.243-1.851-0.518-2.821"/>
				<path style="fill:none;stroke:#263238;stroke-linecap:round;stroke-linejoin:round;stroke-miterlimit:10;" d="M282.218,173.233
					c0,0,1.978-2.645,2.928-2.997"/>
				<path style="fill:none;stroke:#263238;stroke-linecap:round;stroke-linejoin:round;stroke-miterlimit:10;" d="M279.909,183.949
					c0.752,0.891,2.309,0.538,2.309,0.538"/>
				
					<line style="fill:none;stroke:#263238;stroke-linecap:round;stroke-linejoin:round;stroke-miterlimit:10;" x1="284.714" y1="185.799" x2="286.503" y2="186.368"/>
			</g>
			<path style="fill:#FFFFFF;stroke:#263238;stroke-linecap:round;stroke-linejoin:round;stroke-miterlimit:10;" d="M188.885,303.97
				c0,0-3.644,10.755-3.598,12.871c0.046,2.116,3.444,7.135,5.977,7.447c2.533,0.311,13.985,0,14.98,0
				c0.995,0-0.833-4.884-3.65-10.998l3.545-7.38L188.885,303.97z"/>
			<g>
				<path style="fill:#FFFFFF;stroke:#263238;stroke-linecap:round;stroke-linejoin:round;stroke-miterlimit:10;" d="
					M268.283,324.283c2.817,3.663,2.701,5.313,2.701,5.313s-47.742,17.747-59.401,8.816c-2.104-1.613-0.41-10.581-0.41-10.581
					l-1.783-5.758c0,0,2.193-4.706-1.524-19.539l-1.765,8.138c-4.234-5.295-18.692-4.938-18.692-4.938s5.642-17.988,9.172-28.194
					c3.521-10.206,11.632-12.363,18.656-15.537c7.015-3.173,16.597-10.26,16.597-10.26s1.943,2.977,5.999,0.071
					c4.056-2.915,28.568-27.098,28.568-27.098c1.408,6.088,12.88,12.479,12.88,12.479s-11.828,18.46-13.593,23.755
					c-0.321,0.954-0.553,3.565-0.651,7.309c-0.312,11.641,0.651,34.228,4.296,51.931
					C269.825,322.581,268.283,324.283,268.283,324.283z"/>
				<g>
					<defs>
						<path id="XMLID_799_" d="M279.283,237.197c0,0-11.828,18.46-13.593,23.755c-0.321,0.954-0.553,3.565-0.651,7.309
							c-9.288-13.067-22.65-12.363-22.65-12.363l-6.142,11.285l-13.005-4.002c0,0-10.206,13.638-10.135,17.168
							c0.071,3.521-5.241,22.186-5.241,22.186l-1.765,8.138c-4.234-5.295-18.692-4.938-18.692-4.938s5.642-17.988,9.172-28.194
							c3.521-10.206,11.632-12.363,18.656-15.537c7.015-3.173,16.597-10.26,16.597-10.26s1.943,2.977,5.999,0.071
							c4.056-2.915,28.568-27.098,28.568-27.098C267.811,230.805,279.283,237.197,279.283,237.197z"/>
					</defs>
					<use xlink:href="#XMLID_799_"  style="overflow:visible;fill:#92E3A9;"/>
					<clipPath id="XMLID_00000029047430466667381700000000938163115276513441_">
						<use xlink:href="#XMLID_799_"  style="overflow:visible;"/>
					</clipPath>
					<path style="opacity:0.2;clip-path:url(#XMLID_00000029047430466667381700000000938163115276513441_);fill-opacity:0.7;" d="
						M279.283,237.197c0,0-11.828,18.46-13.593,23.755c-0.321,0.954-0.553,3.565-0.651,7.309
						c-9.288-13.067-22.65-12.363-22.65-12.363l-6.142,11.285l-13.005-4.002c0,0-10.206,13.638-10.135,17.168
						c0.071,3.521-5.241,22.186-5.241,22.186l-1.765,8.138c-4.234-5.295-18.692-4.938-18.692-4.938s5.642-17.988,9.172-28.194
						c3.521-10.206,11.632-12.363,18.656-15.537c7.015-3.173,16.597-10.26,16.597-10.26s1.943,2.977,5.999,0.071
						c4.056-2.915,28.568-27.098,28.568-27.098C267.811,230.805,279.283,237.197,279.283,237.197z"/>
					
						<use xlink:href="#XMLID_799_"  style="overflow:visible;fill:none;stroke:#263238;stroke-linecap:round;stroke-linejoin:round;stroke-miterlimit:10;"/>
				</g>
			</g>
			<g>
				<path style="fill:#FFFFFF;stroke:#263238;stroke-linecap:round;stroke-linejoin:round;stroke-miterlimit:10;" d="
					M240.544,241.555v12.346l-5.642,10.456l-13.994-4.234c0.606-2.157,0.517-6.935,0.33-10.625c-0.134-2.745-0.33-4.885-0.33-4.885
					L240.544,241.555z"/>
				<path style="fill:#263238;" d="M240.544,241.555v11.784c-2.157,0.784-4.546,1.399-6.766,1.382
					c-4.439-0.036-9.778-3.307-12.542-5.223c-0.134-2.745-0.33-4.885-0.33-4.885L240.544,241.555z"/>
			</g>
			<g>
				<path style="fill:#FFFFFF;stroke:#263238;stroke-linecap:round;stroke-linejoin:round;stroke-miterlimit:10;" d="
					M215.979,234.299c0,0-3.483-1.817-3.916-0.191c-0.432,1.626,0.458,0.748,1.069,3.651c0.612,2.903,1.623,5.868,4.18,5.535
					C219.869,242.962,217.863,235.13,215.979,234.299z"/>
				<path style="fill:#FFFFFF;stroke:#263238;stroke-linecap:round;stroke-linejoin:round;stroke-miterlimit:10;" d="
					M240.039,230.96c0,0,2.551-2.988,3.561-1.641c1.009,1.347-0.145,0.865,0.373,3.786c0.518,2.921,0.688,6.049-1.807,6.697
					C239.67,240.449,238.603,232.435,240.039,230.96z"/>
				<path style="fill:#FFFFFF;stroke:#263238;stroke-linecap:round;stroke-linejoin:round;stroke-miterlimit:10;" d="
					M226.316,215.814c17.345-2.226,16.507,24.406,15.751,28.561c-0.408,2.239-6.7,6.7-10.231,7.37
					c-2.359,0.448-10.686-1.431-12.455-3.608C217.853,246.256,209.038,218.032,226.316,215.814z"/>
				<path style="fill:none;stroke:#263238;stroke-linecap:round;stroke-linejoin:round;stroke-miterlimit:10;" d="M231.312,226.391
					c0,0,3.262-2.028,4.937,0.617"/>
				<path style="fill:none;stroke:#263238;stroke-linecap:round;stroke-linejoin:round;stroke-miterlimit:10;" d="M225.582,227.009
					c0,0-3.085-1.675-4.672,1.587"/>
				<path style="fill:#263238;" d="M235.127,229.836c0.063,0.516-0.186,0.97-0.557,1.016c-0.37,0.045-0.722-0.336-0.785-0.851
					c-0.063-0.515,0.186-0.97,0.557-1.015C234.713,228.939,235.064,229.32,235.127,229.836z"/>
				<path style="fill:#263238;" d="M224.87,231.091c0.063,0.516-0.186,0.97-0.557,1.015c-0.371,0.045-0.722-0.336-0.785-0.851
					c-0.063-0.516,0.186-0.97,0.557-1.016C224.456,230.194,224.807,230.576,224.87,231.091z"/>
				<path style="fill:none;stroke:#263238;stroke-linecap:round;stroke-linejoin:round;stroke-miterlimit:10;" d="M229.857,228.199
					c0,0-0.264,3.438,0.705,4.849"/>
				<path style="fill:none;stroke:#263238;stroke-linecap:round;stroke-linejoin:round;stroke-miterlimit:10;" d="M229.082,233.747
					c0,0,1.48-0.49,1.965,0c0.485,0.491,1.322,1.747,1.543,2.143s-0.749,0.838-0.749,0.838"/>
				<path style="fill:none;stroke:#263238;stroke-linecap:round;stroke-linejoin:round;stroke-miterlimit:10;" d="M228.581,236.728
					c0,0,0.167-0.419,0.502-0.419"/>
				<path style="fill:none;stroke:#263238;stroke-linecap:round;stroke-linejoin:round;stroke-miterlimit:10;" d="M235.808,239.615
					c-2.429,1.366-10.226,2.023-10.226,2.023s-0.353,4.942,5.73,4.024C237.684,244.701,235.808,239.615,235.808,239.615z"/>
				<path style="fill:#263238;" d="M219.264,220.514c0,0,3.644,0.353,5.642-0.705v-1.175c0,0,3.438,1.349,5.657,0.969
					c2.219-0.381,3.894,0,3.894,0l-3.144-1.791c0,0,4.169,0.465,6.463,2.76l0.766,4.293c0,0,2.148,2.723,3.425,7.885
					c0,0-0.604-11.411-2.72-14.115l1.646-0.235c0,0-3.174-4.232-7.111-5.525l2.468-0.47c0,0-11.813-2.586-15.339,1.411l-2.116-0.823
					c0,0-3.443,4.114-3.014,5.76c0,0-1.922,3.174-2.51,5.172c-0.588,1.998,0.588,9.606,0.588,9.606l2.524,4.333
					c0,0,0.18-6.964,2.178-10.275C218.559,227.587,218.235,222.726,219.264,220.514z"/>
			</g>
			<path style="fill:none;stroke:#263238;stroke-linecap:round;stroke-linejoin:round;stroke-miterlimit:10;" d="M240.723,320.938
				c-6.326-1.137-14.725-2.91-18.716-8.505"/>
			<path style="fill:none;stroke:#263238;stroke-linecap:round;stroke-linejoin:round;stroke-miterlimit:10;" d="M256.564,322.483
				c-4.088-0.062-8.186-0.416-12.234-0.974"/>
			<path style="fill:none;stroke:#263238;stroke-linecap:round;stroke-linejoin:round;stroke-miterlimit:10;" d="M240.408,300.099
				c-1.326,0.957-2.772,1.802-4.342,2.284"/>
			<path style="fill:none;stroke:#263238;stroke-linecap:round;stroke-linejoin:round;stroke-miterlimit:10;" d="M253.391,285.81
				c-2.913,4.297-6.266,8.426-10.102,11.931"/>
			<path style="fill:none;stroke:#263238;stroke-linecap:round;stroke-linejoin:round;stroke-miterlimit:10;" d="M205.551,274.643
				c0,0,6.18,1.771,7.557,5.705"/>
			<path style="fill:none;stroke:#263238;stroke-linecap:round;stroke-linejoin:round;stroke-miterlimit:10;" d="M212.158,294.633
				c-0.26,1.714-0.725,3.458-1.67,4.929"/>
			<path style="fill:none;stroke:#263238;stroke-linecap:round;stroke-linejoin:round;stroke-miterlimit:10;" d="M212.206,285.81
				c0.217,1.776,0.292,3.574,0.246,5.362"/>
			<path style="fill:none;stroke:#263238;stroke-linecap:round;stroke-linejoin:round;stroke-miterlimit:10;" d="M265.194,259.338
				c-0.078,0.907-0.118,1.818-0.117,2.728"/>
			<path style="fill:none;stroke:#263238;stroke-linecap:round;stroke-linejoin:round;stroke-miterlimit:10;" d="M266.203,252.956
				c-0.224,0.967-0.411,1.942-0.572,2.921"/>
			<path style="fill:none;stroke:#263238;stroke-linecap:round;stroke-linejoin:round;stroke-miterlimit:10;" d="M245.107,245.323
				c0,0,5.698-2.652,8.284-1.006"/>
			<path style="fill:none;stroke:#263238;stroke-linecap:round;stroke-linejoin:round;stroke-miterlimit:10;" d="M187.965,303.97
				c0,0,6.537-2.821,9.887-1.587"/>
		</g>
		<g>
			<rect x="177.716" y="396.395" style="fill:#1A2E35;" width="95.657" height="7.604"/>
			<g>
				<defs>
					<path id="XMLID_797_" d="M235.509,435.79h-18.792c-7.451,0-13.512-6.062-13.512-13.513v-83.08c0-4.527-3.683-8.211-8.211-8.211
						h-4.21c-1.231,0-2.228-0.998-2.228-2.228c0-1.231,0.998-2.228,2.228-2.228h4.21c6.985,0,12.668,5.682,12.668,12.668v83.08
						c0,4.994,4.063,9.056,9.056,9.056h18.792c1.231,0,2.228,0.998,2.228,2.228C237.737,434.792,236.74,435.79,235.509,435.79z"/>
				</defs>
				<use xlink:href="#XMLID_797_"  style="overflow:visible;fill:#FFFFFF;"/>
				<clipPath id="XMLID_00000150808905727859998260000009312123062856667055_">
					<use xlink:href="#XMLID_797_"  style="overflow:visible;"/>
				</clipPath>
				<g style="opacity:0.4;clip-path:url(#XMLID_00000150808905727859998260000009312123062856667055_);">
					<path style="fill:#92E3A9;" d="M235.509,435.79h-18.792c-7.451,0-13.512-6.062-13.512-13.513v-83.08
						c0-4.527-3.683-8.211-8.211-8.211h-4.21c-1.231,0-2.228-0.998-2.228-2.228c0-1.231,0.998-2.228,2.228-2.228h4.21
						c6.985,0,12.668,5.682,12.668,12.668v83.08c0,4.994,4.063,9.056,9.056,9.056h18.792c1.231,0,2.228,0.998,2.228,2.228
						C237.737,434.792,236.74,435.79,235.509,435.79z"/>
				</g>
				
					<use xlink:href="#XMLID_797_"  style="overflow:visible;fill:none;stroke:#263238;stroke-linecap:round;stroke-linejoin:round;stroke-miterlimit:10;"/>
			</g>
			<g>
				<path style="fill:#263238;" d="M208.398,323.422h-15.791c-1.008,0-1.824,1.192-1.824,2.661c0,1.47,0.817,2.661,1.824,2.661
					h15.791c1.008,0,1.824-1.191,1.824-2.661C210.223,324.613,209.406,323.422,208.398,323.422z"/>
				<path style="fill:#263238;" d="M192.054,328.619l16.775-5.121l-5.687-1.429l-0.016,0.006c-0.168-0.075-0.343-0.127-0.528-0.127
					h-15.791c-1.008,0-1.824,1.191-1.824,2.661c0,1.11,0.466,2.059,1.128,2.458l-0.002,0.001l0.178,0.079
					c0.052,0.023,0.102,0.054,0.157,0.07L192.054,328.619z"/>
			</g>
			<g>
				<path style="fill:#92E3A9;stroke:#263238;stroke-linecap:round;stroke-linejoin:round;stroke-miterlimit:10;" d="
					M176.397,371.966l-5.569-0.612l-0.301,2.735l4.911,0.54C176.632,374.759,177.637,373.322,176.397,371.966z"/>
				<path style="fill:#92E3A9;stroke:#263238;stroke-linecap:round;stroke-linejoin:round;stroke-miterlimit:10;" d="
					M171.04,420.697l-5.569-0.612l-0.301,2.735l4.911,0.54C171.275,423.491,172.28,422.054,171.04,420.697z"/>
				<g>
					<g>
						<defs>
							<path id="XMLID_784_" d="M189.638,394.44l0.576-4.378l-9.632,2.673c0,0,7.077-31.032,7.322-31.359
								c0.245-0.328-1.718-2.404-1.718-2.404l-8.115,31.241l2.53,7.728L189.638,394.44z"/>
						</defs>
						<use xlink:href="#XMLID_784_"  style="overflow:visible;fill:#FFFFFF;"/>
						<clipPath id="XMLID_00000104671693711094609490000017153109821705676953_">
							<use xlink:href="#XMLID_784_"  style="overflow:visible;"/>
						</clipPath>
						<path style="opacity:0.6;clip-path:url(#XMLID_00000104671693711094609490000017153109821705676953_);fill:#92E3A9;" d="
							M189.638,394.44l0.576-4.378l-9.632,2.673c0,0,7.077-31.032,7.322-31.359c0.245-0.328-1.718-2.404-1.718-2.404l-8.115,31.241
							l2.53,7.728L189.638,394.44z"/>
						
							<use xlink:href="#XMLID_784_"  style="overflow:visible;fill:none;stroke:#263238;stroke-linecap:round;stroke-linejoin:round;stroke-miterlimit:10;"/>
					</g>
					<g>
						<defs>
							<path id="XMLID_785_" d="M188.313,406.492l-8.061-5.38l-4.149,6.994l1.135,32.258c0,0,2.367-1.6,2.199-1.973
								s-0.335-32.201-0.335-32.201l8.822,4.702L188.313,406.492z"/>
						</defs>
						<use xlink:href="#XMLID_785_"  style="overflow:visible;fill:#FFFFFF;"/>
						<clipPath id="XMLID_00000181778979396840471130000017844418128561980320_">
							<use xlink:href="#XMLID_785_"  style="overflow:visible;"/>
						</clipPath>
						<path style="opacity:0.6;clip-path:url(#XMLID_00000181778979396840471130000017844418128561980320_);fill:#92E3A9;" d="
							M188.313,406.492l-8.061-5.38l-4.149,6.994l1.135,32.258c0,0,2.367-1.6,2.199-1.973s-0.335-32.201-0.335-32.201l8.822,4.702
							L188.313,406.492z"/>
						
							<use xlink:href="#XMLID_785_"  style="overflow:visible;fill:none;stroke:#263238;stroke-linecap:round;stroke-linejoin:round;stroke-miterlimit:10;"/>
					</g>
				</g>
				<g>
					<path style="fill:#263238;" d="M179.678,454.76c-0.235,0-0.47-0.014-0.708-0.039c-5.067-0.558-8.188-6.767-9.543-18.983
						c-1.127-10.159-0.904-23.424,0.627-37.352c1.531-13.927,4.195-26.923,7.502-36.594c3.977-11.631,8.39-16.999,13.439-16.458
						c5.067,0.558,8.189,6.768,9.544,18.984c1.127,10.158,0.904,23.423-0.627,37.351c-1.531,13.927-4.195,26.924-7.502,36.595
						C188.62,449.35,184.448,454.76,179.678,454.76z M190.217,352.416c-3.251,1.98-10.098,18.47-13.205,46.735
						c-3.107,28.265-0.006,45.849,2.737,48.488c3.251-1.98,10.098-18.471,13.206-46.736l0,0
						C196.062,372.639,192.961,355.055,190.217,352.416z"/>
				</g>
				<g>
					<defs>
						<path id="XMLID_771_" d="M187.957,348.523c-6.326-0.695-13.968,21.672-17.077,49.954c-3.109,28.282-0.509,51.776,5.818,52.471
							c6.326,0.695,13.968-21.672,17.077-49.954C196.883,372.712,194.283,349.219,187.957,348.523z M178.44,439.088
							c-3.13-5.052-4.065-21.179-1.997-39.999c2.069-18.819,6.485-34.358,10.638-38.61c3.121,5.051,4.057,21.179,1.988,39.998
							C187,419.296,182.584,434.835,178.44,439.088z"/>
					</defs>
					<use xlink:href="#XMLID_771_"  style="overflow:visible;fill:#FFFFFF;"/>
					<clipPath id="XMLID_00000031196636403516626610000015710214413840127894_">
						<use xlink:href="#XMLID_771_"  style="overflow:visible;"/>
					</clipPath>
					<path style="opacity:0.4;clip-path:url(#XMLID_00000031196636403516626610000015710214413840127894_);fill:#92E3A9;" d="
						M176.443,399.089c-2.069,18.819-1.134,34.947,1.997,39.999c-0.809,0.835-1.597,1.232-2.368,1.148
						c-4.714-0.518-6.53-19.155-4.059-41.633c2.471-22.479,8.293-40.276,13.006-39.757c0.771,0.085,1.454,0.644,2.062,1.635
						C182.929,364.73,178.512,380.27,176.443,399.089z"/>
					
						<use xlink:href="#XMLID_771_"  style="overflow:visible;fill:none;stroke:#263238;stroke-linecap:round;stroke-linejoin:round;stroke-miterlimit:10;"/>
				</g>
				<path style="fill:none;stroke:#263238;stroke-linecap:round;stroke-linejoin:round;stroke-miterlimit:10;" d="M180.812,362.568
					c1.241-2.226,4.132-5.828,6.27-2.089"/>
				<path style="fill:none;stroke:#263238;stroke-linecap:round;stroke-linejoin:round;stroke-miterlimit:10;" d="M176.804,372.796
					c0.288-0.967,0.592-1.93,0.912-2.887"/>
				<path style="fill:none;stroke:#263238;stroke-linecap:round;stroke-linejoin:round;stroke-miterlimit:10;" d="M172.757,392.34
					c0.782-5.39,1.724-10.766,3.079-16.044"/>
				<path style="fill:none;stroke:#263238;stroke-linecap:round;stroke-linejoin:round;stroke-miterlimit:10;" d="M170.774,419.023
					c-0.225-7.569,0.449-15.129,1.424-22.628"/>
				<path style="fill:none;stroke:#263238;stroke-linecap:round;stroke-linejoin:round;stroke-miterlimit:10;" d="M171.353,426.763
					c-0.17-1.384-0.302-2.772-0.4-4.163"/>
				<path style="fill:none;stroke:#263238;stroke-linecap:round;stroke-linejoin:round;stroke-miterlimit:10;" d="M178.44,439.088
					c-3.506,5.148-6.231-7.05-6.589-8.979"/>
				<g>
					<defs>
						<path id="XMLID_772_" d="M178.635,393.232l-2.499-5.24c0,0-0.868,1.44-1.203,3.414l1.592,7.692l-3.225,7.163
							c-0.102,1.999,0.433,3.594,0.433,3.594l3.577-4.572l0.256-6.07L178.635,393.232z"/>
					</defs>
					<use xlink:href="#XMLID_772_"  style="overflow:visible;fill:#FFFFFF;"/>
					<clipPath id="XMLID_00000044869654291071521330000001639463266799323818_">
						<use xlink:href="#XMLID_772_"  style="overflow:visible;"/>
					</clipPath>
					<path style="opacity:0.6;clip-path:url(#XMLID_00000044869654291071521330000001639463266799323818_);fill:#92E3A9;" d="
						M178.635,393.232l-2.499-5.24c0,0-0.868,1.44-1.203,3.414l1.592,7.692l-3.225,7.163c-0.102,1.999,0.433,3.594,0.433,3.594
						l3.577-4.572l0.256-6.07L178.635,393.232z"/>
					
						<use xlink:href="#XMLID_772_"  style="overflow:visible;fill:none;stroke:#263238;stroke-linecap:round;stroke-linejoin:round;stroke-miterlimit:10;"/>
				</g>
				<g>
					<defs>
						<path id="XMLID_786_" d="M181.441,399.638c-0.664,6.037-2.59,10.778-4.304,10.59c-1.713-0.188-2.564-5.235-1.9-11.272
							c0.664-6.037,2.59-10.779,4.304-10.59C181.253,388.554,182.104,393.601,181.441,399.638z"/>
					</defs>
					<use xlink:href="#XMLID_786_"  style="overflow:visible;fill:#FFFFFF;"/>
					<clipPath id="XMLID_00000011026625592051990800000014776663974096979589_">
						<use xlink:href="#XMLID_786_"  style="overflow:visible;"/>
					</clipPath>
					<path style="opacity:0.4;clip-path:url(#XMLID_00000011026625592051990800000014776663974096979589_);fill:#92E3A9;" d="
						M181.44,399.639c-0.663,6.034-2.593,10.781-4.303,10.593c-1.081-0.119-1.823-2.182-2.046-5.211
						c0.201,0.21,0.422,0.324,0.661,0.351c1.71,0.188,3.64-4.559,4.303-10.593c0.244-2.224,0.285-4.309,0.146-6.064
						C181.455,389.965,182.012,394.438,181.44,399.639z"/>
					
						<use xlink:href="#XMLID_786_"  style="overflow:visible;fill:none;stroke:#263238;stroke-linecap:round;stroke-linejoin:round;stroke-miterlimit:10;"/>
				</g>
				<path style="fill:#92E3A9;stroke:#263238;stroke-linecap:round;stroke-linejoin:round;stroke-miterlimit:10;" d="
					M186.416,356.694l-1.915-0.211l0.421-3.83l1.915,0.211c1.058,0.116,1.821,1.068,1.704,2.126l0,0
					C188.425,356.047,187.473,356.81,186.416,356.694z"/>
				<path style="fill:#92E3A9;stroke:#263238;stroke-linecap:round;stroke-linejoin:round;stroke-miterlimit:10;" d="
					M188.044,402.302l-1.915-0.211l0.421-3.83l1.915,0.211c1.058,0.116,1.821,1.068,1.704,2.126l0,0
					C190.053,401.656,189.101,402.419,188.044,402.302z"/>
				<path style="fill:#92E3A9;stroke:#263238;stroke-linecap:round;stroke-linejoin:round;stroke-miterlimit:10;" d="
					M178.178,444.39l-1.915-0.21l0.421-3.83l1.915,0.211c1.058,0.116,1.821,1.068,1.704,2.125l0,0
					C180.187,443.743,179.236,444.507,178.178,444.39z"/>
				<path style="fill:#92E3A9;stroke:#263238;stroke-linecap:round;stroke-linejoin:round;stroke-miterlimit:10;" d="
					M181.753,347.84c-6.324-0.695-13.971,21.67-17.08,49.955c-3.109,28.285-0.504,51.777,5.82,52.473
					c6.324,0.695,13.971-21.67,17.08-49.955C190.683,372.028,188.077,348.535,181.753,347.84z M170.785,447.609
					c-0.583-0.148-2.968-2.939-4.133-14.004c-1.018-9.662-0.777-22.275,0.679-35.518c1.456-13.243,3.961-25.608,7.053-34.817
					c3.549-10.57,6.488-12.762,7.081-12.771c0.569,0.136,2.961,2.914,4.13,14.003c1.018,9.661,0.776,22.275-0.679,35.518
					s-3.961,25.608-7.053,34.818C174.32,445.386,171.386,447.591,170.785,447.609z"/>
			</g>
		</g>
		<g>
			<g>
				<g>
					<defs>
						<path id="XMLID_803_" d="M287.242,421.398c0,0-3.164,3.084-6.89,4.216c-2.959,0.9-12.328,0.838-12.328,0.838l-13.103,0.891
							c-0.321-0.579-0.553-1.266-0.722-2.032c-1.23-5.678,1.382-15.456,1.382-15.456l14.03-3.378c0,0,0.419,1.97,0.945,3.851
							c0.437,1.569,0.945,3.075,1.346,3.307c0.882,0.535,13.549,3.218,14.44,4.965C287.242,420.346,287.242,421.398,287.242,421.398
							z"/>
					</defs>
					<use xlink:href="#XMLID_803_"  style="overflow:visible;fill:#FFFFFF;"/>
					<clipPath id="XMLID_00000129176727585067120380000016619478851967817875_">
						<use xlink:href="#XMLID_803_"  style="overflow:visible;"/>
					</clipPath>
					<path style="opacity:0.4;clip-path:url(#XMLID_00000129176727585067120380000016619478851967817875_);fill:#92E3A9;" d="
						M264.459,415.675c0.285,2.264-6.587,7.184-10.26,9.636c-1.23-5.678,1.382-15.456,1.382-15.456l14.03-3.378
						c0,0,0.419,1.97,0.945,3.851C267.757,411.691,264.218,413.803,264.459,415.675z"/>
					
						<use xlink:href="#XMLID_803_"  style="overflow:visible;fill:none;stroke:#263238;stroke-linecap:round;stroke-linejoin:round;stroke-miterlimit:10;"/>
				</g>
				<path style="fill:#FFFFFF;stroke:#263238;stroke-linecap:round;stroke-linejoin:round;stroke-miterlimit:10;" d="
					M265.645,413.109c-1.462,1.218,1.675,2.564,1.675,2.564s4.943-1.862,6.053-1.562l-1.646-2.759
					C271.727,411.352,268.289,410.905,265.645,413.109z"/>
				<path style="fill:#FFFFFF;stroke:#263238;stroke-linecap:round;stroke-linejoin:round;stroke-miterlimit:10;" d="
					M270.896,416.911c0,0,3.388-3.209,4.622-3.418c1.234-0.208,3.597,1.305,3.597,1.305s-3.157,1.66-3.509,2.806L270.896,416.911z"
					/>
			</g>
			<g>
				<defs>
					<path id="XMLID_802_" d="M242.335,426.764l-20.501,2.389c0,0-1.533-2.442-1.587-4.475c-0.053-1.631,3.396-7.889,4.751-10.83
						c0.339-0.713,0.544-1.239,0.544-1.444c0.018-1.061,5.009-8.406,5.009-8.406l13.843,1.533c0,0-0.615,3.815-0.874,5.821
						c-0.196,1.488,0.677,4.466,1.31,7.354c0.223,0.998,0.41,1.979,0.517,2.888C245.767,425.142,242.335,426.764,242.335,426.764z"
						/>
				</defs>
				<use xlink:href="#XMLID_802_"  style="overflow:visible;fill:#FFFFFF;"/>
				<clipPath id="XMLID_00000004516707806342929330000018403590168374627999_">
					<use xlink:href="#XMLID_802_"  style="overflow:visible;"/>
				</clipPath>
				
					<path style="clip-path:url(#XMLID_00000004516707806342929330000018403590168374627999_);fill:#FFFFFF;stroke:#263238;stroke-linecap:round;stroke-linejoin:round;stroke-miterlimit:10;" d="
					M242.334,414.167c0,0-9.346-1.993-13.902,0s-2.723-1.221-1.136-2.815c1.587-1.593,12.964-1.101,14.596,0L242.334,414.167z"/>
				
					<path style="clip-path:url(#XMLID_00000004516707806342929330000018403590168374627999_);fill:#FFFFFF;stroke:#263238;stroke-linecap:round;stroke-linejoin:round;stroke-miterlimit:10;" d="
					M241.401,416.194c-0.705-0.353-7.053-1.116-9.433-1.395c-2.38-0.28-7.003,1.131-7.16,3.247c-0.157,2.116,3.017,0.176,4.868,0
					c1.851-0.176,12.658,0.981,12.658,0.981L241.401,416.194z"/>
				<path style="opacity:0.4;clip-path:url(#XMLID_00000004516707806342929330000018403590168374627999_);fill:#92E3A9;" d="
					M244.831,418.706c-1.756-1.925-5.446-5.295-10.429-6.142c-3.663-0.624-7.024,0.294-9.404,1.284
					c0.339-0.713,0.544-1.239,0.544-1.444c0.018-1.061,5.009-8.406,5.009-8.406l13.843,1.533c0,0-0.615,3.815-0.874,5.821
					C243.325,412.841,244.198,415.818,244.831,418.706z"/>
				
					<use xlink:href="#XMLID_802_"  style="overflow:visible;fill:none;stroke:#263238;stroke-linecap:round;stroke-linejoin:round;stroke-miterlimit:10;"/>
			</g>
			<g>
				<defs>
					<path id="XMLID_801_" d="M276.974,359.332c-0.597,2.514-1.23,5.607-1.836,8.798c0,0,0,0,0,0.009
						c-1.515,7.996-2.843,16.642-3.093,18.549c-0.357,2.665-2.121,12.845-1.417,14.253c0.704,1.408,1.417,7.389,1.417,7.389
						s-4.198-0.749-5.607-0.624c-3.218,0.285-12.381,3.646-12.381,3.646s-1.765-4.769,0-9.003c1.765-4.225,0.704-7.639,0.704-7.639
						l2.113-25.44c-1.756,8.183-4.582,19.824-4.582,19.824l-4.573,5.616l-0.018,0.107v0.009l-2.353,13.192
						c0,0-6.944,2.193-9.279,1.836c-2.148-0.33-7.639-4.154-7.639-4.154l4.189-7.933c0,0-0.232-4.412,0.276-8.673
						c1.07-8.842,2.211-18.086,2.79-22.721c0,0,0.009-0.036,0.018-0.089c0.223-1.863,0.366-2.959,0.366-2.959
						s-20.448-2.933-22.962-8.94c-1.622-3.868-1.631-11.303-1.444-16.116c0.116-2.728,1.988-5.063,4.617-5.794
						c6.828-1.899,11.766-2.888,19.102-3.904c0.223-0.036,0.455-0.062,0.686-0.098c1.961-1.792,9.538-4.421,11.65-4.172
						c1.613,0.196,5.277,1.462,7.363,2.371h0.009c0.178,0.08,0.339,0.152,0.49,0.223c9.065-0.838,11.525,0.936,11.525,0.936
						s0.829,0.348,2.006,0.9c2.558,1.194,6.792,3.352,7.862,4.992C280.477,339.089,279.095,350.516,276.974,359.332z"/>
				</defs>
				<use xlink:href="#XMLID_801_"  style="overflow:visible;fill:#92E3A9;"/>
				<clipPath id="XMLID_00000073681808788521641140000003832735143178640316_">
					<use xlink:href="#XMLID_801_"  style="overflow:visible;"/>
				</clipPath>
				<path style="opacity:0.2;clip-path:url(#XMLID_00000073681808788521641140000003832735143178640316_);fill-opacity:0.7;" d="
					M235.703,366.284c0.223-1.863,0.366-2.959,0.366-2.959C235.98,364.841,235.766,365.964,235.703,366.284z"/>
				<path style="opacity:0.2;clip-path:url(#XMLID_00000073681808788521641140000003832735143178640316_);fill-opacity:0.7;" d="
					M236.069,363.325c0,0-20.448-2.933-22.962-8.94c-1.622-3.868-1.631-11.303-1.444-16.116c0.116-2.728,1.988-5.063,4.617-5.794
					c6.828-1.899,11.766-2.888,19.102-3.904c-5.901,4.163-11.436,7.844-11.436,7.844l0.865-3.708c0,0-9.119,8.361-9.859,12.051
					c-2.469,12.399,12.693,17.569,11.285,14.102c-1.408-3.476,1.943-11.873,2.193-10.349c0.169,1.025,1.934,3.762,2.728,5.036
					c-0.357-1.899,1.747-6.917,1.747-6.917s-0.33,3.503,1.943,8.334C236.131,357.692,236.229,360.981,236.069,363.325z"/>
				<path style="opacity:0.2;clip-path:url(#XMLID_00000073681808788521641140000003832735143178640316_);fill-opacity:0.7;" d="
					M255.091,326.672c0.178,0.08,0.339,0.152,0.49,0.223c9.065-0.838,11.525,0.936,11.525,0.936s0.829,0.348,2.006,0.9
					c-2.835,0.009-6.07,0.811-8.138,3.806C260.974,332.537,258.968,329.774,255.091,326.672z"/>
				<path style="opacity:0.2;clip-path:url(#XMLID_00000073681808788521641140000003832735143178640316_);fill-opacity:0.7;" d="
					M272.045,386.688c-0.357,2.665-2.121,12.845-1.417,14.253c0.704,1.408,1.417,7.389,1.417,7.389s-4.198-0.749-5.607-0.624
					c-3.218,0.285-12.381,3.646-12.381,3.646s-1.765-4.769,0-9.003c1.765-4.225,0.704-7.639,0.704-7.639l2.113-25.44
					c-1.756,8.183-4.582,19.824-4.582,19.824l-4.573,5.616l-0.018,0.107c-0.045-2.3-0.045-4.288,0.018-5.749
					c0.303-7.336,11.49-52.127,13.781-50.541c2.291,1.587,0.677,5.58,0.945,10.099c0.267,4.528,2.933,23.933,2.763,28.559
					c-0.178,4.626-2.763-1.631-2.763-1.631s-1.649,19.744-1.489,23.746c0.152,3.993,3.191-2.585,6.088-3.824
					c2.906-1.23,2.041-11.989,2.273-13.219c0.098-0.526,2.781-6.953,5.821-14.119C273.622,376.134,272.294,384.78,272.045,386.688z"
					/>
				
					<use xlink:href="#XMLID_801_"  style="overflow:visible;fill:none;stroke:#263238;stroke-linecap:round;stroke-linejoin:round;stroke-miterlimit:10;"/>
			</g>
			<path style="fill:none;stroke:#263238;stroke-linecap:round;stroke-linejoin:round;stroke-miterlimit:10;" d="M255.585,326.891
				c2.704,2.116,6.465,4.819,7.288,8.698c0.823,3.879-3.14,21.129-5.995,33.686"/>
			<path style="fill:none;stroke:#263238;stroke-linecap:round;stroke-linejoin:round;stroke-miterlimit:10;" d="M236.066,363.328
				c1.031-5.327-2.697-11.636-3.167-11.989c-0.47-0.353-0.705-3.997,0.94-6.582"/>
			<path style="fill:none;stroke:#263238;stroke-linecap:round;stroke-linejoin:round;stroke-miterlimit:10;" d="M228.432,350.634
				c0,0,0.47,5.289,1.528,6.582c1.058,1.293,5.495,2.074,5.495,2.074"/>
			<path style="fill:none;stroke:#263238;stroke-linecap:round;stroke-linejoin:round;stroke-miterlimit:10;" d="M236.066,328.47
				c0,0-5.518,5.121-5.518,6.532"/>
			<path style="fill:none;stroke:#263238;stroke-linecap:round;stroke-linejoin:round;stroke-miterlimit:10;" d="M264.048,329.712
				c0,0-2.076,0.756-3.095,2.024"/>
			<path style="fill:none;stroke:#263238;stroke-linecap:round;stroke-linejoin:round;stroke-miterlimit:10;" d="M265.106,379.198
				c-1.763-2.468-5.319-22.927-5.319-22.927"/>
			<path style="fill:none;stroke:#263238;stroke-linecap:round;stroke-linejoin:round;stroke-miterlimit:10;" d="M270.63,400.943
				c-2.468-1.293-12.342,3.056-12.342,3.056"/>
			<path style="fill:none;stroke:#263238;stroke-linecap:round;stroke-linejoin:round;stroke-miterlimit:10;" d="M247.719,394.707
				c0,0-7.298,4.003-8.59,3.768c-1.293-0.235-3.063-3.768-3.063-3.768"/>
		</g>
		<path style="fill:#263238;" d="M244.707,423.187h-15.982c-3.957,0-9.115,3.12-11.521,6.968c-1.136,1.816-0.543,3.289,1.325,3.289
			h23.547c1.868,0,4.302-1.473,5.438-3.289C249.921,426.307,248.664,423.187,244.707,423.187z"/>
		<path style="fill:#263238;" d="M280.05,423.187h-15.982c-3.957,0-9.115,3.12-11.521,6.968c-1.136,1.816-0.543,3.289,1.325,3.289
			h23.547c1.868,0,4.302-1.473,5.438-3.289C285.264,426.307,284.007,423.187,280.05,423.187z"/>
		<g>
			<path style="fill:#FFFFFF;stroke:#263238;stroke-linecap:round;stroke-linejoin:round;stroke-miterlimit:10;" d="
				M185.677,318.381c2.07,6.72,7.923,6.274,7.923,6.274l11.115-7.97c0,0-0.869-4.252-6.864-6.013"/>
			<path style="fill:#FFFFFF;stroke:#263238;stroke-linecap:round;stroke-linejoin:round;stroke-miterlimit:10;" d="
				M195.869,317.259c2.953-1.986,7.978-1.279,7.978-1.279c1.58-0.176,3.83-1.073,4.984,0c1.154,1.073,1.589,1.938,3.328,4.406
				c1.739,2.468-1.935,7.479-1.935,7.479s-2.466,1.063-2.145-0.799c0,0-0.828,3.186-3.35,1.607c0,0-0.882,1.014-2.466,0
				c0,0-1.758,1.579-3.098-0.442l-0.097-1.803c0,0-7.387,0.438-6.417-5.689"/>
			<path style="fill:none;stroke:#263238;stroke-linecap:round;stroke-linejoin:round;stroke-miterlimit:10;" d="M208.078,327.066
				c0,0,0.744-1.917,1.313-3.211c0.568-1.294-1.313-4.761-1.313-4.761"/>
			<path style="fill:none;stroke:#263238;stroke-linecap:round;stroke-linejoin:round;stroke-miterlimit:10;" d="M204.728,328.673
				c-0.107-0.362,1.014-4.829,0.837-5.593c-0.176-0.764-1.719-2.928-1.719-2.928"/>
			<path style="fill:none;stroke:#263238;stroke-linecap:round;stroke-linejoin:round;stroke-miterlimit:10;" d="M200.849,321.562
				c0.353,0.705,1.469,2.322,1.411,3.189c-0.059,0.867-0.407,3.511,0.002,3.923"/>
			<path style="fill:none;stroke:#263238;stroke-linecap:round;stroke-linejoin:round;stroke-miterlimit:10;" d="M199.033,327.866
				c-0.123-0.544,0.131-2.189,0.131-2.189s-0.96-0.681-1.312-1.898"/>
		</g>
	</g>
</g>
<g id="Character_1">
	<g>
		<g>
			<path style="fill:#FFFFFF;stroke:#263238;stroke-linecap:round;stroke-linejoin:round;stroke-miterlimit:10;" d="M135.76,382.723
				c-2.17,8.2-3.64,17.3-4.62,25.42c-1.59,13.15-1.92,23.72-1.92,23.72l-8.12,3.67c0,0-2.06-16.49-2.05-27.01
				c0-0.73,0.02-1.43,0.04-2.1c0.34-10.27,2.6-20.17,2.6-20.17l1.36-29.69l0.1-2.13l10.3-0.78l0.16,2.06L135.76,382.723z"/>
			<path style="fill:#263238;" d="M135.76,382.723c-2.17,8.2-3.64,17.3-4.62,25.42c-4.75-1.16-9.28-0.39-12.09,0.38
				c0-0.73,0.02-1.43,0.04-2.1c0.34-10.27,2.6-20.17,2.6-20.17l1.36-29.69c3.68-0.3,7.34-0.59,10.56-0.85L135.76,382.723z"/>
		</g>
		<g>
			<path style="fill:#FFFFFF;stroke:#263238;stroke-linecap:round;stroke-linejoin:round;stroke-miterlimit:10;" d="M172.95,431.823
				l-7.17,5.28c0,0-3.89-11.15-6.42-20.82c-0.68-2.59-1.26-5.08-1.64-7.22c-1.82-10.11-1.68-20.26-1.68-20.26l-2.09-16.75l9.9-2.92
				l5.21,13.27c-0.42,8.66,0.08,18.08,0.85,26.35C171.11,421.693,172.95,431.823,172.95,431.823z"/>
			<path style="fill:#263238;" d="M169.91,408.753c-2.69,2.31-6.62,5.41-10.55,7.53c-0.68-2.59-1.26-5.08-1.64-7.22
				c-1.82-10.11-1.68-20.26-1.68-20.26l-2.09-16.75l9.9-2.92l5.21,13.27C168.64,391.063,169.14,400.483,169.91,408.753z"/>
		</g>
		<g>
			<path style="fill:#FFFFFF;stroke:#263238;stroke-linecap:round;stroke-linejoin:round;stroke-miterlimit:10;" d="
				M168.127,143.842c0,0,0.822,2.645-0.697,14.065l7.902-4.747c-0.034-4.413,0.032-8.118,0.38-8.902
				c0.86-1.941,0.805-10.701,0.371-12.006c-0.433-1.305-1.512-1.533-1.512-1.533s-2.823-1.064-3.62-1.49
				c-0.797-0.425-3.088-0.701-3.088-0.701l-2.453,2.607l0.168,1.669c0,0-2.373,0.408-2.238,1.743
				c0.134,1.335-0.013,2.867,0.471,4.673C164.296,141.025,168.127,143.842,168.127,143.842z"/>
			<path style="fill:none;stroke:#263238;stroke-linecap:round;stroke-linejoin:round;stroke-miterlimit:10;" d="M165.58,132.804
				c0,0,3.005,1.344,3.427,1.302c0.422-0.042,0.369,1.55-0.248,1.771c-0.617,0.221-2.311,1.026-2.311,1.026s1.984-0.041,2.48,2.766"
				/>
			<path style="fill:none;stroke:#263238;stroke-linecap:round;stroke-linejoin:round;stroke-miterlimit:10;" d="M166.966,133.401
				c0,0,0.835-1.395,1.217-1.83c0.382-0.435,1.639-1.355,1.639-1.355"/>
			<path style="fill:none;stroke:#263238;stroke-linecap:round;stroke-linejoin:round;stroke-miterlimit:10;" d="M167.693,136.327
				c0.124,1.136,1.866,1.85,2.286,1.093c0,0,1.009,0.851,1.642,0.787c0.633-0.064,0.96-0.335,1.898-0.191
				c0.938,0.144,1.362-1.991,1.179-2.395c-0.183-0.404-0.914,0.092-0.914,0.092"/>
			<path style="fill:none;stroke:#263238;stroke-linecap:round;stroke-linejoin:round;stroke-miterlimit:10;" d="M172.612,138.008
				c-0.687-1.021-1.259-2.471-1.12-3.199c0.14-0.728,1.85-2.786,1.85-2.786"/>
			<path style="fill:none;stroke:#263238;stroke-linecap:round;stroke-linejoin:round;stroke-miterlimit:10;" d="M169.98,137.421
				c0,0-0.36-1.63-0.667-2.472"/>
			<path style="fill:none;stroke:#263238;stroke-linecap:round;stroke-linejoin:round;stroke-miterlimit:10;" d="M169.007,134.106
				c0,0,1.34-2.516,2.066-2.906"/>
			<path style="fill:none;stroke:#263238;stroke-linecap:round;stroke-linejoin:round;stroke-miterlimit:10;" d="M168.127,143.842
				c0.679,0.733,1.89,0.294,1.89,0.294"/>
			
				<line style="fill:none;stroke:#263238;stroke-linecap:round;stroke-linejoin:round;stroke-miterlimit:10;" x1="172.125" y1="145.105" x2="173.603" y2="145.468"/>
		</g>
		<path style="fill:none;stroke:#263238;stroke-width:2;stroke-miterlimit:10;" d="M92.593,319.578
			c0.264,0.725,4.22,25.517,1.055,30.264c-3.165,4.747-3.572-27.235-3.572-27.235"/>
		<polygon style="fill:#757575;stroke:#263238;stroke-linecap:round;stroke-linejoin:round;stroke-miterlimit:10;" points="
			84.681,321.342 43.275,454.76 45.121,454.76 87.846,324.811 		"/>
		<path style="fill:#263238;" d="M113.881,182.011c0,0-7.717-1.491-9.826,6.307c-2.11,7.798,1.582,28.035,0,32.422
			c-1.582,4.387,0.717,10.427,4.578,9.781c0,0-1.872-1.394-0.588-4.185c1.284-2.791,4.185-8.456,3.922-12.876
			c0,0,0.988,8.332-1.582,12.117c0,0,5.613-9.286,4.613-17.749C113.997,199.363,113.881,182.011,113.881,182.011z"/>
		<path style="fill:#263238;" d="M135.194,183.136c0,0-1.53-7.389-11.983-6.435c-10.453,0.954-18.04,9.222-14.115,21.703
			c3.925,12.481,12.48,17.186,18.905,14.174c6.425-3.012,9.098-0.178,12.092-5.363S140.751,187.563,135.194,183.136z"/>
		<g>
			<defs>
				<path id="XMLID_808_" d="M175.96,191.863c-0.02,0.12-2.2,4.9-5.26,11.46c-3.64,7.83-8.53,18.18-12.53,26.22
					c-3.4,6.85-6.15,12-6.91,12.46l2.38-35.59c5.01-6.86,9.18-16.31,10.5-20.45c1.32-4.14,3.29-35.47,3.29-35.47
					c3.64,1.18,8.62,0,8.62,0S176.96,186.073,175.96,191.863z"/>
			</defs>
			<use xlink:href="#XMLID_808_"  style="overflow:visible;fill:#92E3A9;"/>
			<clipPath id="XMLID_00000147934247861976223150000009460166689746805413_">
				<use xlink:href="#XMLID_808_"  style="overflow:visible;"/>
			</clipPath>
			<path style="opacity:0.2;clip-path:url(#XMLID_00000147934247861976223150000009460166689746805413_);fill-opacity:0.7;" d="
				M170.7,203.323c-3.64,7.83-8.53,18.18-12.53,26.22c-0.75-1.09-1.22-1.81-1.22-1.81s3.95-10.88,3.56-17.01
				c-0.4-6.13,3.36-2.57,1.58,4.74C162.09,215.463,166.82,208.373,170.7,203.323z"/>
			
				<use xlink:href="#XMLID_808_"  style="overflow:visible;fill:none;stroke:#263238;stroke-linecap:round;stroke-linejoin:round;stroke-miterlimit:10;"/>
		</g>
		<g>
			<g>
				<defs>
					<path id="XMLID_806_" d="M163.25,431.289c0,0,3.278-2.682,10.747-2.146c0,0,1.577,9.324,2.89,12.039
						c1.312,2.714,7.146,7.409,8.222,8.213c1.076,0.805,1.39,3.621,1.39,3.621h-22.485c0,0-0.313-6.24,0.452-11.972L163.25,431.289z
						"/>
				</defs>
				<use xlink:href="#XMLID_806_"  style="overflow:visible;fill:#FFFFFF;"/>
				<clipPath id="XMLID_00000024682679720811209840000004678018462509002430_">
					<use xlink:href="#XMLID_806_"  style="overflow:visible;"/>
				</clipPath>
				<path style="opacity:0.4;clip-path:url(#XMLID_00000024682679720811209840000004678018462509002430_);fill:#92E3A9;" d="
					M163.25,431.289c0,0,3.278-2.682,10.747-2.146c0,0,1.577,9.324,2.89,12.039c1.312,2.714,7.146,7.409,8.222,8.213
					c1.076,0.805,1.39,3.621,1.39,3.621h-22.485c0,0-0.313-6.24,0.452-11.972L163.25,431.289z"/>
				
					<use xlink:href="#XMLID_806_"  style="overflow:visible;fill:none;stroke:#263238;stroke-linecap:round;stroke-linejoin:round;stroke-miterlimit:10;"/>
			</g>
			<path style="fill:none;stroke:#263238;stroke-linecap:round;stroke-linejoin:round;stroke-miterlimit:10;" d="M168.027,432.496
				c0,0,1.49,8.584,3.007,10.819c1.517,2.235,2.872,3.398,2.872,3.398s1.543,0.026,0.242,2.172"/>
			<path style="fill:none;stroke:#263238;stroke-linecap:round;stroke-linejoin:round;stroke-miterlimit:10;" d="M172.1,445.908
				c0,0,4.471-2.892,8.131-0.709"/>
			<path style="fill:none;stroke:#263238;stroke-linecap:round;stroke-linejoin:round;stroke-miterlimit:10;" d="M170.725,443.944
				c0,0,3.041-2.746,7.156-1.239"/>
			<path style="fill:none;stroke:#263238;stroke-linecap:round;stroke-linejoin:round;stroke-miterlimit:10;" d="M168.971,440.953
				c0,0,3.273-2.938,7.282-1.067"/>
			<path style="fill:none;stroke:#263238;stroke-linecap:round;stroke-linejoin:round;stroke-miterlimit:10;" d="M168.064,437.217
				c0,0,4.094-2.467,7.484-0.596"/>
			<path style="fill:#92E3A9;stroke:#263238;stroke-linecap:round;stroke-linejoin:round;stroke-miterlimit:10;" d="
				M164.015,453.016l0.195,1.744h2.576c0,0,2.065-1.341,4.323,0c0,0,10.029,0,12.137,0c2.108,0,3.608-0.872,3.608-0.872
				l-0.353-0.872H164.015z"/>
		</g>
		<g>
			<g>
				<defs>
					<path id="XMLID_805_" d="M119.456,432.402c0,0,3.577-2.555,10.987-2.044c0,0,0.536,8.882,1.546,11.468
						c1.009,2.586,6.319,7.057,7.305,7.824c0.986,0.767,0.986,3.449,0.986,3.449h-22.485c0,0,0.383-5.944,1.788-11.404
						L119.456,432.402z"/>
				</defs>
				<use xlink:href="#XMLID_805_"  style="overflow:visible;fill:#FFFFFF;"/>
				<clipPath id="XMLID_00000002368846537422451610000001560326079505293457_">
					<use xlink:href="#XMLID_805_"  style="overflow:visible;"/>
				</clipPath>
				<path style="opacity:0.4;clip-path:url(#XMLID_00000002368846537422451610000001560326079505293457_);fill:#92E3A9;" d="
					M119.456,432.402c0,0,3.577-2.555,10.987-2.044c0,0,0.536,8.882,1.546,11.468c1.009,2.586,6.319,7.057,7.305,7.824
					c0.986,0.767,0.986,3.449,0.986,3.449h-22.485c0,0,0.383-5.944,1.788-11.404L119.456,432.402z"/>
				
					<use xlink:href="#XMLID_805_"  style="overflow:visible;fill:none;stroke:#263238;stroke-linecap:round;stroke-linejoin:round;stroke-miterlimit:10;"/>
			</g>
			<path style="fill:none;stroke:#263238;stroke-linecap:round;stroke-linejoin:round;stroke-miterlimit:10;" d="M124.098,433.552
				c0,0,0.532,8.176,1.799,10.306c1.267,2.129,2.493,3.236,2.493,3.236s1.54,0.025,0,2.069"/>
			<path style="fill:none;stroke:#263238;stroke-linecap:round;stroke-linejoin:round;stroke-miterlimit:10;" d="M126.674,446.328
				c0,0,4.794-2.755,8.21-0.675"/>
			<path style="fill:none;stroke:#263238;stroke-linecap:round;stroke-linejoin:round;stroke-miterlimit:10;" d="M125.518,444.457
				c0,0,3.347-2.616,7.295-1.18"/>
			<path style="fill:none;stroke:#263238;stroke-linecap:round;stroke-linejoin:round;stroke-miterlimit:10;" d="M124.098,441.608
				c0,0,3.601-2.799,7.401-1.016"/>
			<path style="fill:none;stroke:#263238;stroke-linecap:round;stroke-linejoin:round;stroke-miterlimit:10;" d="M123.608,438.05
				c0,0,4.369-2.35,7.55-0.568"/>
			<path style="fill:#92E3A9;stroke:#263238;stroke-linecap:round;stroke-linejoin:round;stroke-miterlimit:10;" d="
				M117.795,453.099v1.661h2.576c0,0,2.215-1.278,4.323,0c0,0,10.029,0,12.137,0s3.705-0.83,3.705-0.83l-0.255-0.831H117.795z"/>
		</g>
		<path style="fill:#757575;stroke:#263238;stroke-linecap:round;stroke-linejoin:round;stroke-miterlimit:10;" d="M162.507,268.859
			c0,0,7.097,28.219,16.306,132.597c0,0-30.863,9.077-65.259,2.593c0,0,2.512-5.755,3.039-32.883
			c0.527-27.128-1.596-71.47,13.46-93.375L162.507,268.859z"/>
		<g>
			<defs>
				<path id="XMLID_807_" d="M163.69,268.513c0.4,2.8-19.71,13.02-30.97,12.83c-1.38-0.01-2.61-0.19-3.67-0.55
					c-2.67-0.92-1.4-12.21-1.4-12.21s-7.32-9.31-13.11-17.39c-3.56-4.97-6.54-9.49-6.88-11.09c-0.54-2.53,7.64-10.03,14.14-14.21
					c21.55-13.86,31.84-19.48,31.84-19.48s2.32,2.54,3.31,7.97l0.99,8.44c1.72,6.95,3.38,14.33,3.75,18.21
					c0.84,8.66-1.18,18.83-1.18,18.83S163.25,265.383,163.69,268.513z"/>
			</defs>
			<use xlink:href="#XMLID_807_"  style="overflow:visible;fill:#92E3A9;"/>
			<clipPath id="XMLID_00000102534703685151403980000005700809724576078501_">
				<use xlink:href="#XMLID_807_"  style="overflow:visible;"/>
			</clipPath>
			<path style="opacity:0.2;clip-path:url(#XMLID_00000102534703685151403980000005700809724576078501_);fill-opacity:0.7;" d="
				M132.72,281.343c-1.38-0.01-2.61-0.19-3.67-0.55c-2.67-0.92-1.4-12.21-1.4-12.21s-7.32-9.31-13.11-17.39l0.58-1.35
				c0,0,4.23,0.83,8.09,6.77c3.87,5.93,4.32,9.87,7.4,9.87c6.16,0,18.95-26.1,13.86-7.33c-3.06,11.3-13.06,11.5-13.06,11.5
				s10.48,3.17,13.06,3.17C146.34,273.823,139.83,280.083,132.72,281.343z"/>
			
				<use xlink:href="#XMLID_807_"  style="overflow:visible;fill:none;stroke:#263238;stroke-linecap:round;stroke-linejoin:round;stroke-miterlimit:10;"/>
		</g>
		<path style="fill:#92E3A9;stroke:#263238;stroke-linecap:round;stroke-linejoin:round;stroke-miterlimit:10;" d="M107.659,240.1
			c-3.341,11.137-4.505,28.486-4.769,33.059c-0.264,4.573-9.912,30.861-10.703,33.085s-2.11,6.052-2.11,6.052l6.077,4.578
			c0,0,13.919-30.945,14.943-33.989c1.024-3.044,6.936-26.384,6.936-26.384s-0.533-11.536-3.036-13.807"/>
		<path style="fill:#FFFFFF;stroke:#263238;stroke-linecap:round;stroke-linejoin:round;stroke-miterlimit:10;" d="M90.077,312.296
			c0,0-5.347,3.279-6.813,4.446c-1.517,1.208-1.286,6.824-1.286,6.824s-2.967,2.868,0.482,4.934c0,0,3.513-3.341,3.926-3.418
			c1.46-0.272-0.069,4.379-0.069,4.379c0.34,1.187,7.232-4.032,8.023-4.807s1.813-7.78,1.813-7.78S94.022,312.168,90.077,312.296z"
			/>
		<path style="fill:#FFFFFF;stroke:#263238;stroke-linecap:round;stroke-linejoin:round;stroke-miterlimit:10;" d="M84.549,323.468
			c-0.89-0.791-1.187-1.742-1.088-2.503c0.099-0.761-1.088-2.459-1.088-2.459"/>
		<path style="fill:#FFFFFF;stroke:#263238;stroke-linecap:round;stroke-linejoin:round;stroke-miterlimit:10;" d="M86.386,325.083
			c2.317-0.231,2.515,0.659,2.515,0.659"/>
		<path style="fill:none;stroke:#263238;stroke-linecap:round;stroke-linejoin:round;stroke-miterlimit:10;" d="M164.625,183.502
			c0,0,6.166-0.652,6.166,4.877"/>
		<path style="fill:none;stroke:#263238;stroke-linecap:round;stroke-linejoin:round;stroke-miterlimit:10;" d="M102.615,274.839
			c0,0,1.994,6.478,5.02,4.905"/>
		<path style="fill:none;stroke:#263238;stroke-linecap:round;stroke-linejoin:round;stroke-miterlimit:10;" d="M160.507,259.859
			c0,0-2.771,11.388-12.067,12.378"/>
		<path style="fill:none;stroke:#263238;stroke-linecap:round;stroke-linejoin:round;stroke-miterlimit:10;" d="M123.211,230.568
			c0,0,16.327,2.517,19.096-2.83"/>
		<path style="fill:none;stroke:#263238;stroke-linecap:round;stroke-linejoin:round;stroke-miterlimit:10;" d="M152.593,246.984
			c0,0-6.998-1.054-12.499,10.418"/>
		<path style="fill:none;stroke:#263238;stroke-linecap:round;stroke-linejoin:round;stroke-miterlimit:10;" d="M160.507,298.92
			c0,0-22.755,34.602-27.203,63.003"/>
		<path style="fill:none;stroke:#263238;stroke-linecap:round;stroke-linejoin:round;stroke-miterlimit:10;" d="M164.015,374.963
			c0,0-2.703,13.008-28.82,17.745"/>
		<g>
			<path style="fill:#FFFFFF;stroke:#263238;stroke-linecap:round;stroke-linejoin:round;stroke-miterlimit:10;" d="M140.55,215.703
				c0,0-2.02,14.82-19.87,11.57c0,0,3.95-3.17,4.34-5.05c0.4-1.87-4.33-17.35-4.33-17.35l10.14,3.46l3.6,1.23
				c0,0-0.65,4.82,1.08,6.82c0.14,0.15,0.29,0.29,0.45,0.41C136.86,217.443,140.55,215.703,140.55,215.703z"/>
			<path style="fill:#263238;" d="M135.51,216.383c-5.65,2.12-12.3-7.25-12.3-7.25s3.72-0.66,7.62-0.8l3.6,1.23
				C134.43,209.563,133.78,214.383,135.51,216.383z"/>
		</g>
		<g>
			<path style="fill:#FFFFFF;stroke:#263238;stroke-linecap:round;stroke-linejoin:round;stroke-miterlimit:10;" d="
				M123.701,179.618c14.066-3.53,15.749,18.653,16.382,24.072c0.234,2.003-3.168,9.575-5.865,10.127
				c-2.11,0.432-11.475-2.557-12.834-4.836C117.767,202.913,107.872,183.59,123.701,179.618z"/>
			<path style="fill:none;stroke:#263238;stroke-linecap:round;stroke-linejoin:round;stroke-miterlimit:10;" d="M131.414,193.111
				c0.38,0.919,0.697,3.85,3.251,4.932c1.652,0.7-1.092,2.452-1.092,2.452"/>
			<path style="fill:none;stroke:#263238;stroke-linecap:round;stroke-linejoin:round;stroke-miterlimit:10;" d="M130.319,188.771
				c0,0,2.809-1.252,5.446,0.405"/>
			<path style="fill:none;stroke:#263238;stroke-linecap:round;stroke-linejoin:round;stroke-miterlimit:10;" d="M125.668,190.46
				c0,0-2.388,0.508-4.912,2.481"/>
			<path style="fill:#263238;" d="M135.418,193.984c0.12,0.583-0.124,1.126-0.545,1.213c-0.421,0.087-0.86-0.315-0.98-0.898
				c-0.12-0.583,0.124-1.126,0.545-1.213C134.859,192.999,135.297,193.401,135.418,193.984z"/>
			<path style="fill:#263238;" d="M126.396,196.501c0.12,0.583-0.124,1.126-0.545,1.213c-0.421,0.087-0.86-0.315-0.98-0.898
				c-0.12-0.583,0.124-1.126,0.545-1.213C125.837,195.516,126.275,195.918,126.396,196.501z"/>
			<path style="fill:none;stroke:#263238;stroke-linecap:round;stroke-linejoin:round;stroke-miterlimit:10;" d="M135.059,204.086
				c-3.69,0.711-7.057-0.276-7.057-0.276s0.871,3.612,4.061,3.396c2.447-0.166,2.493-3.034,2.493-3.034"/>
			<path style="fill:#263238;" d="M119.914,184.37c0,0,4.013,9.703-3.618,16.15l-7.199-8.252l12.533-14.641
				c14.312-3.637,23.157,3.14,22.835,28.873C144.464,206.501,137.747,178.135,119.914,184.37z"/>
			<path style="fill:#FFFFFF;stroke:#263238;stroke-linecap:round;stroke-linejoin:round;stroke-miterlimit:10;" d="
				M118.355,200.325c-0.239-1.159-3.988-3.1-4.358-0.962c-0.631,3.645,1.434,5.981,3.466,6.504c0.91,0.234,2.156,0.819,2.559-0.241"
				/>
			<path style="fill:#263238;" d="M116.926,198.133l4.674-3.596c0,0,3.634-2.503,6.527-1.85l2.704-0.393
				c0,0,1.746-1.084,2.518-1.213c1.066-0.179,2.945-0.655,3.881,0.284l1.194,0.444l0.106,1.77l-0.958,0.139
				c0,0,0.142,2.983-1.758,3.373c-2.108,0.433-4.185-2.51-4.185-2.51s-1.774-0.072-1.985,0.758c0,0,0.543,3.119-2.361,3.841
				c-2.904,0.722-5.22-2.837-5.22-2.837l-4.796,2.787L116.926,198.133z"/>
		</g>
	</g>
</g>
</svg>
